<svg width="32" height="32" viewBox="0 0 32 32" fill="none" xmlns="http://www.w3.org/2000/svg">
<path d="M8.32812 22.5469C6.45312 20.6719 5.26562 18.2188 5.26562 15.5781C5.26562 10.1094 9.79687 5.57813 15.2656 5.57813C18.1719 5.57813 20.8125 6.82812 22.625 8.64062" stroke="#FFD700" stroke-width="1.5" stroke-linecap="round" stroke-linejoin="round"/>
<path d="M23.6719 8.15625C25.5156 9.99999 26.7656 12.6406 26.7656 15.2812C26.7656 20.75 22.2344 25.2812 16.7656 25.2812C13.8594 25.2812 11.2187 24.0312 9.40625 22.2188" stroke="#FFD700" stroke-width="1.5" stroke-linecap="round" stroke-linejoin="round"/>
<path d="M9.21875 18.5312C9.70313 18.0469 10.5625 18.0469 11.0469 18.5312C11.5312 19.0156 11.5312 19.875 11.0469 20.3594C10.5625 20.8437 9.70313 20.8437 9.21875 20.3594C8.73438 19.875 8.73438 19.0156 9.21875 18.5312Z" fill="#FFD700"/>
<path d="M12.0937 21.5312C12.5781 21.0469 13.4375 21.0469 13.9219 21.5312C14.4062 22.0156 14.4062 22.875 13.9219 23.3594C13.4375 23.8437 12.5781 23.8437 12.0937 23.3594C11.6094 22.875 11.6094 22.0156 12.0937 21.5312Z" fill="#FFD700"/>
<path d="M7.82812 23.9219C8.3125 23.4375 9.17188 23.4375 9.65625 23.9219C10.1406 24.4062 10.1406 25.2656 9.65625 25.75C9.17188 26.2344 7.82812 26.2344 7.34375 25.75C6.85938 25.2656 6.85938 24.4062 7.34375 23.9219H7.82812Z" fill="#FFD700"/>
<path d="M13.8281 6.95312C13.8281 6.46875 14.6875 6.46875 15.1719 6.95312L17.8906 9.67187C18.375 10.1562 19.2344 10.1562 19.7188 9.67187C20.2031 9.1875 20.2031 8.32812 19.7188 7.84375L16.9062 5.03125C16.4219 4.54688 15.5625 4.54688 15.0781 5.03125C14.5937 5.51562 14.5937 6.375 15.0781 6.85937L13.8281 6.95312Z" fill="#FFD700"/>
</svg>