<svg width="78" height="65" viewBox="0 0 78 65" fill="none" xmlns="http://www.w3.org/2000/svg">
<path d="M57 11H21C19.8954 11 19 11.8954 19 13V49C19 50.1046 19.8954 51 21 51H57C58.1046 51 59 50.1046 59 49V13C59 11.8954 58.1046 11 57 11Z" stroke="#040033" stroke-width="2" stroke-linecap="round" stroke-linejoin="round"/>
<path d="M39 11V1M29 11V1M49 11V1M29 61V51M49 61V51M39 61V51M59 31H69M59 21H69M59 41H69M9 21H19M9 41H19M9 31H19" stroke="#040033" stroke-width="2" stroke-linecap="round" stroke-linejoin="round"/>
<path d="M49 19H29C27.8954 19 27 19.8954 27 21V41C27 42.1046 27.8954 43 29 43H49C50.1046 43 51 42.1046 51 41V21C51 19.8954 50.1046 19 49 19Z" stroke="#7545FF" stroke-width="2" stroke-linecap="round" stroke-linejoin="round"/>
</svg>
