<svg width="100" height="100" viewBox="0 0 100 100" fill="none" xmlns="http://www.w3.org/2000/svg">
<rect width="99.9996" height="100" fill="white"/>
<path d="M97.9998 27.8311C97.9998 24.8014 96.7507 21.8958 94.5272 19.7535C92.3037 17.6111 89.2881 16.4076 86.1436 16.4076H84.958C83.644 13.2857 81.2929 10.6717 78.2726 8.97451C75.2523 7.27734 71.7332 6.59282 68.2661 7.02808C64.799 7.46333 61.5795 8.9938 59.1114 11.38C56.6432 13.7661 55.0658 16.8734 54.6259 20.2154H54.5271C51.9067 20.2154 49.3937 21.2184 47.5408 23.0036C45.6879 24.7889 44.647 27.2102 44.647 29.735C44.647 32.2597 45.6879 34.6811 47.5408 36.4663C49.3937 38.2516 51.9067 39.2545 54.5271 39.2545H86.2424C89.3697 39.2294 92.3601 38.0148 94.5622 35.8752C96.7643 33.7356 97.9999 30.8443 97.9998 27.8311Z" stroke="#040033" stroke-width="2" stroke-miterlimit="10" stroke-linecap="round" stroke-linejoin="round"/>
<path d="M66.3838 23.0727V18.9929C66.3838 18.0551 66.9043 17.1558 67.8307 16.4927C68.7571 15.8296 70.0137 15.457 71.3239 15.457C72.6341 15.457 73.8906 15.8296 74.817 16.4927C75.7435 17.1558 76.2639 18.0551 76.2639 18.9929V23.0727" stroke="#7545FF" stroke-width="2" stroke-miterlimit="10" stroke-linecap="round" stroke-linejoin="round"/>
<path d="M77.2521 23.3105H65.3959C64.1681 23.3105 63.1729 24.2695 63.1729 25.4524V32.5921C63.1729 33.7751 64.1681 34.734 65.3959 34.734H77.2521C78.4798 34.734 79.4751 33.7751 79.4751 32.5921V25.4524C79.4751 24.2695 78.4798 23.3105 77.2521 23.3105Z" fill="#7545FF"/>
<path d="M71.3242 27.2383V30.8081" stroke="white" stroke-width="2" stroke-miterlimit="10" stroke-linecap="round" stroke-linejoin="round"/>
<path d="M64.1255 38.87C64.1255 35.4075 62.6979 32.0868 60.1568 29.6384C57.6157 27.1901 54.1693 25.8146 50.5756 25.8146H49.2206C47.7189 22.2468 45.0319 19.2593 41.5801 17.3196C38.1284 15.38 34.1066 14.5977 30.1442 15.0951C26.1818 15.5926 22.5023 17.3417 19.6816 20.0687C16.8609 22.7958 15.0581 26.3469 14.5554 30.1664H14.4425C11.4478 30.1664 8.5757 31.3126 6.45811 33.3529C4.34053 35.3932 3.15088 38.1605 3.15088 41.0459C3.15088 43.9313 4.34053 46.6986 6.45811 48.7389C8.5757 50.7792 11.4478 51.9254 14.4425 51.9254H50.6885C54.2626 51.8967 57.6801 50.5086 60.1968 48.0633C62.7136 45.618 64.1256 42.3137 64.1255 38.87Z" fill="white" stroke="#040033" stroke-width="2" stroke-miterlimit="10" stroke-linecap="round" stroke-linejoin="round"/>
<path d="M33.6379 47.5754C36.9847 47.5754 39.6978 42.7045 39.6978 36.6959C39.6978 30.6873 36.9847 25.8164 33.6379 25.8164C30.2912 25.8164 27.5781 30.6873 27.5781 36.6959C27.5781 42.7045 30.2912 47.5754 33.6379 47.5754Z" stroke="#7545FF" stroke-width="2" stroke-miterlimit="10" stroke-linecap="round" stroke-linejoin="round"/>
<path d="M23.2871 41.0477H43.9884M23.2871 32.3441H43.9884M33.6377 25.8164V47.5754" stroke="#7545FF" stroke-width="2" stroke-miterlimit="10" stroke-linecap="round" stroke-linejoin="round"/>
<path d="M33.6378 47.5754C39.874 47.5754 44.9294 42.7045 44.9294 36.6959C44.9294 30.6873 39.874 25.8164 33.6378 25.8164C27.4016 25.8164 22.3462 30.6873 22.3462 36.6959C22.3462 42.7045 27.4016 47.5754 33.6378 47.5754Z" stroke="#7545FF" stroke-width="2" stroke-miterlimit="10" stroke-linecap="round" stroke-linejoin="round"/>
<path d="M19.6968 89.9993V56.4227L49.2422 33.7949L79.5453 54.9628V89.9993H19.6968Z" fill="white"/>
<path d="M64.9499 64.9062H35.5359C34.9557 64.9062 34.4854 65.3311 34.4854 65.8552V86.731C34.4854 87.255 34.9557 87.6799 35.5359 87.6799H64.9499C65.53 87.6799 66.0004 87.255 66.0004 86.731V65.8552C66.0004 65.3311 65.53 64.9062 64.9499 64.9062Z" stroke="#7545FF" stroke-width="1.77492" stroke-linecap="round" stroke-linejoin="round"/>
<path d="M34.4854 64.905L37.1426 59.7809C37.2449 59.5201 37.43 59.2915 37.6754 59.123C37.9207 58.9545 38.2157 58.8534 38.5244 58.832H61.9082C62.2095 58.8563 62.4962 58.9592 62.7325 59.128C62.9687 59.2967 63.1441 59.5238 63.2368 59.7809L66.0004 64.905" stroke="#7545FF" stroke-width="1.77492" stroke-linecap="round" stroke-linejoin="round"/>
<path d="M61.2729 84.6406H51.8184" stroke="#7545FF" stroke-linecap="round" stroke-linejoin="round"/>
<path d="M34.4854 80.0879H66.0004" stroke="#7545FF" stroke-width="1.77492" stroke-linecap="round" stroke-linejoin="round"/>
<path d="M61.2729 76.4193H51.8184M61.2729 68.8281H51.8184" stroke="#7545FF" stroke-linecap="round" stroke-linejoin="round"/>
<path d="M34.4854 72.4961H66.0004" stroke="#7545FF" stroke-width="1.77492" stroke-linecap="round" stroke-linejoin="round"/>
<path d="M38.5 69C38.7761 69 39 68.7761 39 68.5C39 68.2239 38.7761 68 38.5 68C38.2239 68 38 68.2239 38 68.5C38 68.7761 38.2239 69 38.5 69Z" fill="#7545FF"/>
<path d="M38.5 77C38.7761 77 39 76.7761 39 76.5C39 76.2239 38.7761 76 38.5 76C38.2239 76 38 76.2239 38 76.5C38 76.7761 38.2239 77 38.5 77Z" fill="#7545FF"/>
<path d="M38.5 84C38.7761 84 39 83.7761 39 83.5C39 83.2239 38.7761 83 38.5 83C38.2239 83 38 83.2239 38 83.5C38 83.7761 38.2239 84 38.5 84Z" fill="#7545FF"/>
<path d="M8.4043 64.6636L49.2424 33.1855L90.0804 64.6636" stroke="#040033" stroke-width="2" stroke-miterlimit="10" stroke-linecap="round" stroke-linejoin="round"/>
<path d="M19 57V98M79 98V57.4162" stroke="#040033" stroke-width="2" stroke-miterlimit="10" stroke-linecap="round" stroke-linejoin="round"/>
</svg>
