<svg width="82" height="65" viewBox="0 0 82 65" fill="none" xmlns="http://www.w3.org/2000/svg">
<path d="M7.07082 61L23.1815 44.7517C25.6608 42.251 30.4417 43.0744 32.8222 43.0744C34.639 43.0953 36.4099 42.4978 37.8486 41.3785C39.2873 40.2593 40.31 38.6835 40.7514 36.9057C41.1928 35.128 41.0271 33.2521 40.2812 31.5809C39.5353 29.9098 38.2527 28.5411 36.6405 27.6959C32.8683 25.8659 32.3166 25.2351 30.6234 21.6919C29.8059 20.0444 28.4589 18.7251 26.8022 17.9493C25.1456 17.1734 23.2771 16.9869 21.5018 17.4201C19.7265 17.8533 18.1492 18.8807 17.0274 20.3345C15.9056 21.7884 15.3054 23.5828 15.325 25.425C15.325 29.8871 16.1808 32.6069 13.6621 35.1487L1.5 47.413M80.5 1L62.7408 5.88712C59.5031 6.75963 55.9745 3.62948 54.0205 2.41169C53.1519 1.85181 52.1771 1.48059 51.1583 1.32168C50.1396 1.16277 49.0992 1.21966 48.1034 1.48871C46.0907 2.07761 44.3852 3.43546 43.35 5.27333C42.3147 7.11119 42.0314 9.28398 42.5603 11.3293C42.7539 12.127 43.0645 12.8911 43.4819 13.5963C45.6979 17.0797 45.8519 17.8991 45.532 21.7862C45.4714 22.6566 45.5461 23.5313 45.7532 24.3785C46.0756 25.9177 46.8597 27.3195 47.9993 28.3937C49.1388 29.4679 50.5785 30.1623 52.1228 30.3828C53.6671 30.6032 55.2413 30.339 56.6316 29.6259C58.0219 28.9129 59.161 27.7856 59.8942 26.3971C62.0403 22.587 62.6473 19.8287 65.9363 18.9416L80.5 14.9814" stroke="#040033" stroke-width="2" stroke-miterlimit="10" stroke-linecap="round" stroke-linejoin="round"/>
<path d="M65.5 49H48.5M59.5 55H48.5" stroke="#7545FF" stroke-width="2" stroke-miterlimit="10" stroke-linecap="round" stroke-linejoin="round"/>
</svg>
