<svg width="64" height="64" viewBox="0 0 64 64" fill="none" xmlns="http://www.w3.org/2000/svg">
<g clip-path="url(#clip0_3655_110085)">
<path d="M40.7004 37.8999L61.6004 58.7999C61.9668 59.1738 62.1721 59.6764 62.1721 60.1999C62.1721 60.7234 61.9668 61.226 61.6004 61.5999C61.2265 61.9664 60.7239 62.1716 60.2004 62.1716C59.6769 62.1716 59.1742 61.9664 58.8004 61.5999L37.9004 40.6999" stroke="#040033" stroke-width="2" stroke-miterlimit="10" stroke-linecap="round" stroke-linejoin="round"/>
<path d="M23.7998 45.8C35.9501 45.8 45.7998 35.9503 45.7998 23.8C45.7998 11.6498 35.9501 1.80005 23.7998 1.80005C11.6495 1.80005 1.7998 11.6498 1.7998 23.8C1.7998 35.9503 11.6495 45.8 23.7998 45.8Z" stroke="#5649CF" stroke-width="2" stroke-miterlimit="10" stroke-linecap="round" stroke-linejoin="round"/>
<path d="M23.7998 41.8C33.7409 41.8 41.7998 33.7412 41.7998 23.8C41.7998 13.8589 33.7409 5.80005 23.7998 5.80005C13.8587 5.80005 5.7998 13.8589 5.7998 23.8C5.7998 33.7412 13.8587 41.8 23.7998 41.8Z" stroke="#5649CF" stroke-width="2" stroke-miterlimit="10" stroke-linecap="round" stroke-linejoin="round"/>
</g>
<defs>
<clipPath id="clip0_3655_110085">
<rect width="64" height="64" fill="white"/>
</clipPath>
</defs>
</svg>
