<svg width="95" height="95" viewBox="0 0 95 95" fill="none" xmlns="http://www.w3.org/2000/svg">
<path d="M26.7188 16.3281C27.5385 16.3281 28.2031 15.6635 28.2031 14.8438C28.2031 14.024 27.5385 13.3594 26.7188 13.3594C25.899 13.3594 25.2344 14.024 25.2344 14.8438C25.2344 15.6635 25.899 16.3281 26.7188 16.3281Z" stroke="#040033" stroke-width="3" stroke-linecap="round" stroke-linejoin="round"/>
<path d="M37.1094 16.3281C37.9292 16.3281 38.5938 15.6635 38.5938 14.8438C38.5938 14.024 37.9292 13.3594 37.1094 13.3594C36.2896 13.3594 35.625 14.024 35.625 14.8438C35.625 15.6635 36.2896 16.3281 37.1094 16.3281Z" stroke="#040033" stroke-width="3" stroke-linecap="round" stroke-linejoin="round"/>
<path d="M47.5 16.3281C48.3198 16.3281 48.9844 15.6635 48.9844 14.8438C48.9844 14.024 48.3198 13.3594 47.5 13.3594C46.6802 13.3594 46.0156 14.024 46.0156 14.8438C46.0156 15.6635 46.6802 16.3281 47.5 16.3281Z" stroke="#040033" stroke-width="3" stroke-linecap="round" stroke-linejoin="round"/>
<path d="M59.375 68.2812H92.0312V23.75M17.8125 23.75V62.3438M17.8125 5.9375H92.0312V23.75H17.8125V5.9375Z" stroke="#040033" stroke-width="3" stroke-linecap="round" stroke-linejoin="round"/>
<path d="M69.8947 35.3L78 44.5L69.8947 53.7M42.1053 35.3L34 44.5L42.1053 53.7M60.6316 33L51.3684 56" stroke="#7545FF" stroke-width="3" stroke-linecap="round" stroke-linejoin="round"/>
<path d="M17.8125 83.125C23.75 83.125 29.6875 89.0625 35.625 89.0625H89.0625C92.0312 89.0625 101.531 77.1875 59.375 77.1875C45.125 77.1875 38.5937 74.2188 38.5937 74.2188M2.96875 62.3438H17.8125V89.0625H2.96875V62.3438Z" stroke="#040033" stroke-width="3" stroke-linecap="round" stroke-linejoin="round"/>
<path d="M17.8125 65.3125C23.75 65.3125 26.7188 62.3438 35.625 62.3438C44.5312 62.3438 62.3438 63.8281 62.3438 75.7031V77.1875" stroke="#040033" stroke-width="3" stroke-linecap="round" stroke-linejoin="round"/>
</svg>
