<svg xmlns="http://www.w3.org/2000/svg" xmlns:xlink="http://www.w3.org/1999/xlink" width="699" height="238" fill="none" xmlns:v="https://vecta.io/nano"><style><![CDATA[.B{fill:#fff}.C{fill:#282828}.D{fill:#fafafc}.E{stroke:#dadae3}.F{fill:#999}.G{stroke:#282828}.H{stroke-width:12}.I{stroke:#a6a6a6}.J{stroke-width:.391}.K{stroke-width:.5}.L{fill-rule:evenodd}.M{fill:#cacaca}.N{fill:#4d4d4d}.O{stroke-width:.703}]]></style><path d="M0 0h699v238H0z" class="B"/><rect x="230.839" y="12.5" width="453" height="195" rx="9.5" class="D E"/><path d="M252.491 38.107a2.11 2.11 0 0 1-1.178-.337c-.344-.227-.614-.55-.81-.969s-.291-.927-.291-1.516.098-1.094.294-1.513a2.27 2.27 0 0 1 .817-.962c.346-.222.738-.334 1.176-.334.338 0 .61.057.816.17s.37.242.483.391.206.281.27.394h.064v-2.702h1.062V38h-1.037v-.849h-.089c-.064.116-.156.249-.277.398s-.282.279-.49.391-.478.167-.81.167zm.235-.905c.305 0 .563-.081.774-.242s.374-.389.483-.678.167-.625.167-1.008a2.79 2.79 0 0 0-.163-.994 1.46 1.46 0 0 0-.48-.664c-.211-.159-.471-.238-.781-.238-.32 0-.586.083-.799.249a1.52 1.52 0 0 0-.483.678c-.107.286-.16.61-.16.969s.055.693.163.984.27.522.483.693.481.252.796.252zm6.334.909c-.537 0-1-.115-1.388-.345s-.684-.557-.895-.977-.313-.915-.313-1.481c0-.559.104-1.051.313-1.477a2.43 2.43 0 0 1 .88-.998c.379-.239.822-.359 1.329-.359.307 0 .606.051.895.153s.548.262.777.479.411.501.544.849.198.766.198 1.261v.376h-4.336v-.795h3.296c0-.279-.057-.527-.171-.742s-.273-.389-.479-.515a1.34 1.34 0 0 0-.717-.188c-.299 0-.559.073-.782.22a1.48 1.48 0 0 0-.511.568c-.118.232-.177.484-.177.756v.622c0 .364.063.675.191.93s.312.451.544.586a1.61 1.61 0 0 0 .813.199c.201 0 .385-.028.55-.085a1.19 1.19 0 0 0 .43-.263 1.14 1.14 0 0 0 .277-.43l1.005.181a1.83 1.83 0 0 1-.433.778c-.206.22-.466.392-.778.515s-.664.181-1.062.181zm5.869 0c-.537 0-1-.115-1.388-.345s-.684-.557-.895-.977-.313-.915-.313-1.481c0-.559.105-1.051.313-1.477s.504-.759.881-.998.821-.359 1.328-.359c.308 0 .606.051.895.153s.548.262.777.479.411.501.544.849.199.766.199 1.261v.376h-4.336v-.795h3.295c0-.279-.057-.527-.17-.742a1.29 1.29 0 0 0-.48-.515c-.203-.126-.443-.188-.717-.188-.298 0-.559.073-.781.22s-.391.334-.512.568-.177.484-.177.756v.622c0 .364.064.675.191.93s.312.451.544.586a1.61 1.61 0 0 0 .813.199c.201 0 .385-.028.55-.085a1.19 1.19 0 0 0 .43-.263 1.14 1.14 0 0 0 .277-.43l1.005.181a1.82 1.82 0 0 1-.433.778c-.206.22-.465.392-.778.515s-.664.181-1.062.181zm3.519 1.935v-7.5h1.037v.884h.088a3.03 3.03 0 0 1 .267-.394c.116-.149.277-.279.483-.391s.478-.17.816-.17c.441 0 .834.111 1.179.334s.617.543.814.962.298.923.298 1.513-.098 1.095-.295 1.516-.466.742-.81.969-.735.337-1.175.337c-.331 0-.602-.056-.813-.167s-.372-.241-.49-.391-.21-.282-.274-.398h-.064v2.894h-1.061zm1.04-4.773c0 .383.056.72.167 1.008s.272.515.483.678.469.242.774.242c.317 0 .583-.084.796-.252s.374-.401.483-.693.166-.619.166-.984a2.71 2.71 0 0 0-.163-.969c-.106-.286-.267-.513-.483-.678s-.479-.249-.799-.249a1.27 1.27 0 0 0-.781.238 1.46 1.46 0 0 0-.48.664 2.79 2.79 0 0 0-.163.994zm7.429 2.837c-.528 0-.982-.12-1.364-.359s-.67-.574-.873-.998-.306-.909-.306-1.456c0-.554.105-1.043.313-1.467a2.39 2.39 0 0 1 .881-.998c.378-.239.825-.359 1.338-.359.415 0 .784.077 1.108.231s.586.364.785.639.321.595.359.962h-1.034c-.056-.256-.187-.476-.39-.661s-.471-.277-.81-.277a1.32 1.32 0 0 0-.778.234c-.22.154-.391.374-.514.66s-.185.62-.185 1.008c0 .398.06.741.181 1.03s.291.513.511.671a1.32 1.32 0 0 0 .785.238 1.32 1.32 0 0 0 .547-.11 1.12 1.12 0 0 0 .416-.323c.113-.14.192-.308.237-.504h1.034c-.038.353-.153.668-.345.945s-.448.495-.77.653-.695.238-1.126.238zm9.591-3.747c0 .758-.135 1.417-.405 1.978s-.642.992-1.115 1.3-1.013.458-1.626.458-1.157-.153-1.63-.458-.842-.741-1.112-1.3-.401-1.22-.401-1.978.134-1.416.401-1.974.642-.994 1.115-1.3a2.92 2.92 0 0 1 1.627-.462c.613 0 1.155.154 1.626.462s.845.739 1.115 1.3.405 1.217.405 1.974zm-.646 0c0-.651-.109-1.209-.327-1.672s-.515-.823-.892-1.069-.803-.369-1.281-.369-.902.123-1.279.369-.675.601-.895 1.065-.326 1.023-.326 1.676.108 1.209.326 1.673.515.82.892 1.069.803.369 1.282.369.905-.123 1.281-.369.678-.601.895-1.065.326-1.025.324-1.676zm6.201-1.818a1.32 1.32 0 0 0-.537-.966c-.317-.239-.716-.359-1.196-.359-.339 0-.637.058-.895.174s-.457.277-.604.483-.216.436-.216.696c0 .192.041.36.124.504a1.22 1.22 0 0 0 .334.373c.142.102.298.189.468.263s.347.135.522.185l.767.22c.232.064.464.146.696.245s.444.225.636.377.349.333.465.55.178.475.178.778c0 .388-.101.737-.302 1.048s-.49.556-.866.739-.828.27-1.353.27c-.495 0-.925-.082-1.289-.245s-.652-.394-.86-.685a1.93 1.93 0 0 1-.351-1.012h.681c.024.286.119.529.284.728s.382.35.647.455a2.46 2.46 0 0 0 .888.153c.362 0 .684-.06.965-.181s.507-.294.668-.511.245-.476.245-.767a.98.98 0 0 0-.192-.618c-.127-.168-.306-.309-.536-.423s-.491-.214-.792-.302l-.87-.256c-.57-.17-1.013-.406-1.328-.707s-.472-.684-.472-1.151c0-.391.104-.734.312-1.03a2.1 2.1 0 0 1 .853-.696c.359-.168.763-.252 1.21-.252a2.76 2.76 0 0 1 1.201.249c.348.166.624.394.827.685a1.78 1.78 0 0 1 .33.987h-.642z" class="C"/><rect x="500.589" y="20.25" width="175.5" height="179.5" rx="7.75" class="E K"/><path d="M514.428 40.096c-.396 0-.75-.101-1.061-.304s-.552-.495-.729-.873-.262-.834-.262-1.365.088-.984.265-1.361.424-.666.735-.866.664-.3 1.058-.3c.305 0 .55.051.735.153s.333.217.435.352a3.07 3.07 0 0 1 .243.355h.057v-2.432h.956V40h-.933v-.764h-.08a2.62 2.62 0 0 1-.249.358c-.107.134-.254.251-.441.352s-.431.15-.729.15zm.211-.815c.275 0 .507-.072.697-.217s.336-.351.434-.611a2.52 2.52 0 0 0 .15-.908c0-.341-.049-.639-.147-.895s-.241-.455-.431-.598-.424-.214-.703-.214c-.288 0-.528.075-.719.224s-.337.353-.435.61-.144.549-.144.873.049.623.147.885.243.47.435.623.432.227.716.227zm5.701.818c-.484 0-.901-.103-1.25-.31a2.1 2.1 0 0 1-.805-.879c-.188-.379-.282-.824-.282-1.333 0-.503.094-.946.282-1.329s.454-.683.792-.898.74-.323 1.196-.323c.277 0 .545.046.805.137s.493.236.7.431.37.451.489.764.179.689.179 1.135v.339h-3.902v-.716h2.965c0-.251-.051-.474-.153-.668a1.16 1.16 0 0 0-.431-.463 1.21 1.21 0 0 0-.646-.169c-.268 0-.503.066-.703.198s-.352.3-.46.511a1.47 1.47 0 0 0-.16.681v.559c0 .328.057.607.172.837s.281.406.489.527a1.45 1.45 0 0 0 .732.179c.181 0 .347-.026.496-.077a1.06 1.06 0 0 0 .386-.237 1.03 1.03 0 0 0 .25-.387l.904.163a1.63 1.63 0 0 1-.39.7 1.88 1.88 0 0 1-.7.463c-.279.109-.597.163-.955.163zm5.282 0c-.484 0-.9-.103-1.25-.31s-.615-.502-.805-.879-.281-.824-.281-1.333c0-.503.093-.946.281-1.329s.454-.683.793-.898.739-.323 1.195-.323c.277 0 .545.046.805.137s.493.236.7.431.37.451.489.764.179.689.179 1.135v.339h-3.902v-.716h2.966c0-.251-.051-.474-.154-.668a1.16 1.16 0 0 0-.431-.463c-.183-.113-.399-.169-.646-.169-.268 0-.503.066-.703.198s-.351.3-.46.511a1.47 1.47 0 0 0-.16.681v.559c0 .328.058.607.173.837s.28.406.489.527.452.179.732.179a1.52 1.52 0 0 0 .495-.077c.149-.053.278-.132.387-.237a1.04 1.04 0 0 0 .249-.387l.904.163a1.63 1.63 0 0 1-.39.7c-.185.198-.418.353-.699.463s-.598.163-.956.163zm3.166 1.742v-6.75h.934v.796h.08c.055-.102.135-.22.239-.355s.25-.251.435-.352.43-.153.735-.153c.396 0 .75.1 1.061.3s.555.489.732.866.268.831.268 1.361-.088.986-.265 1.365-.42.668-.729.873-.661.304-1.057.304c-.299 0-.543-.05-.732-.15s-.335-.217-.441-.352-.189-.253-.246-.358h-.058v2.605h-.956zm.937-4.295a2.52 2.52 0 0 0 .15.908c.1.26.245.463.435.611s.422.217.696.217c.286 0 .525-.076.716-.227s.337-.361.435-.623.15-.557.15-.885-.049-.615-.147-.873-.241-.461-.434-.61-.432-.224-.72-.224c-.277 0-.511.071-.703.214s-.333.342-.431.598-.147.554-.147.895zm6.686 2.554c-.475 0-.884-.108-1.227-.323s-.603-.517-.787-.898-.274-.818-.274-1.31c0-.499.093-.938.281-1.32s.452-.683.792-.898.743-.323 1.205-.323c.373 0 .706.069.997.208a1.79 1.79 0 0 1 .707.575 1.74 1.74 0 0 1 .323.866h-.93a1.12 1.12 0 0 0-.352-.594c-.181-.166-.424-.249-.729-.249a1.19 1.19 0 0 0-.7.211c-.198.139-.352.337-.463.594s-.166.558-.166.908c0 .358.054.667.163.927s.262.461.46.604.436.214.706.214c.181 0 .345-.033.492-.099s.274-.165.374-.291.174-.277.215-.454h.93c-.034.318-.138.601-.31.85s-.404.445-.694.588-.625.214-1.013.214zm8.711-3.372c0 .69-.124 1.287-.373 1.79s-.592.891-1.026 1.163-.931.409-1.49.409-1.054-.136-1.489-.409-.777-.66-1.026-1.163-.374-1.099-.374-1.79.125-1.287.374-1.79.591-.891 1.026-1.163.931-.409 1.489-.409 1.055.136 1.49.409.776.661 1.026 1.163.373 1.099.373 1.79zm-.767 0c0-.567-.094-1.045-.284-1.435s-.442-.685-.764-.885-.677-.3-1.074-.3-.755.1-1.077.3-.574.495-.764.885-.281.868-.281 1.435.094 1.045.281 1.435.445.685.764.885.681.3 1.077.3.755-.1 1.074-.3.576-.495.764-.885.284-.868.284-1.435zm5.68-1.636c-.039-.324-.194-.575-.467-.754s-.607-.268-1.003-.268c-.29 0-.544.047-.761.141s-.384.223-.505.387a.93.93 0 0 0-.179.559.8.8 0 0 0 .125.451c.085.123.194.227.326.31s.27.148.415.201l.4.125.664.179c.171.045.36.107.569.185s.413.186.604.323a1.65 1.65 0 0 1 .48.518c.125.211.188.47.188.777 0 .354-.092.673-.278.959s-.451.512-.805.681-.779.252-1.282.252c-.469 0-.874-.076-1.217-.227a1.94 1.94 0 0 1-.806-.633c-.194-.271-.303-.585-.329-.943h.818c.021.247.105.452.249.614a1.35 1.35 0 0 0 .557.358c.225.077.468.115.728.115.303 0 .574-.049.815-.147s.432-.239.572-.416a.98.98 0 0 0 .211-.626c0-.217-.06-.394-.182-.531s-.281-.247-.479-.332-.413-.16-.643-.224l-.805-.23c-.511-.147-.916-.357-1.215-.63s-.447-.63-.447-1.071c0-.366.099-.686.297-.959a1.97 1.97 0 0 1 .806-.639c.338-.153.717-.23 1.134-.23s.797.076 1.125.227.588.354.78.614a1.53 1.53 0 0 1 .307.885h-.767zm9.904.492h-.997c-.038-.213-.11-.401-.214-.562s-.232-.299-.384-.412-.32-.198-.508-.256a1.98 1.98 0 0 0-.591-.086c-.377 0-.715.095-1.013.285s-.531.468-.703.834-.256.814-.256 1.342.085.982.256 1.349.408.643.706.831.634.281 1.007.281a2.05 2.05 0 0 0 .588-.083c.187-.057.357-.142.508-.252s.279-.246.384-.406a1.53 1.53 0 0 0 .22-.556l.997.003a2.65 2.65 0 0 1-.31.889 2.44 2.44 0 0 1-.585.697c-.236.194-.507.344-.811.451a3.01 3.01 0 0 1-.998.16c-.566 0-1.071-.134-1.515-.403a2.82 2.82 0 0 1-1.048-1.16c-.253-.503-.38-1.103-.38-1.799s.128-1.299.383-1.799.605-.889 1.049-1.157a2.84 2.84 0 0 1 1.511-.406 3.05 3.05 0 0 1 .972.15c.303.098.574.243.815.435s.44.422.598.697.264.585.319.936zM562 33.455V40h-.956v-6.545H562zm3.353 6.645c-.46 0-.862-.105-1.205-.316s-.609-.506-.799-.885-.284-.822-.284-1.33.095-.954.284-1.336a2.13 2.13 0 0 1 .799-.889c.343-.211.745-.316 1.205-.316s.862.105 1.205.316.61.507.799.889.285.827.285 1.336-.095.95-.285 1.33a2.13 2.13 0 0 1-.799.885c-.343.211-.744.316-1.205.316zm.003-.802c.299 0 .546-.079.742-.236a1.39 1.39 0 0 0 .435-.63c.096-.262.143-.551.143-.866a2.49 2.49 0 0 0-.143-.863c-.094-.264-.239-.476-.435-.636s-.443-.24-.742-.24-.549.08-.747.24a1.43 1.43 0 0 0-.438.636 2.54 2.54 0 0 0-.141.863 2.55 2.55 0 0 0 .141.866 1.41 1.41 0 0 0 .438.63c.198.158.447.236.747.236zm6.462-1.333v-2.873h.959V40h-.94v-.85h-.051c-.113.262-.294.48-.543.655s-.555.259-.924.259a1.66 1.66 0 0 1-.837-.208c-.241-.141-.431-.348-.569-.623s-.205-.615-.205-1.02v-3.123h.956v3.008c0 .334.093.601.278.799s.426.297.722.297c.179 0 .357-.045.534-.134s.327-.225.444-.406.178-.411.176-.69zm4.081 2.132c-.397 0-.75-.101-1.062-.304s-.551-.495-.728-.873-.262-.834-.262-1.365.088-.984.265-1.361.424-.666.735-.866.664-.3 1.058-.3c.305 0 .55.051.735.153s.332.217.435.352a3.07 3.07 0 0 1 .243.355h.057v-2.432h.956V40h-.933v-.764h-.08a2.55 2.55 0 0 1-.25.358c-.106.134-.253.251-.441.352s-.43.15-.728.15zm.211-.815c.274 0 .507-.072.696-.217s.337-.351.435-.611a2.52 2.52 0 0 0 .15-.908c0-.341-.049-.639-.147-.895s-.242-.455-.431-.598-.424-.214-.703-.214c-.288 0-.528.075-.72.224s-.336.353-.434.61-.144.549-.144.873.049.623.147.885.243.47.435.623.432.227.716.227z" class="C"/><rect x="590.589" y="28.25" width="77.5" height="163.5" rx="5.75" class="B E K"/><path d="M601.612 38h-.932l2.094-5.818h1.014L605.882 38h-.932l-1.645-4.761h-.045L601.612 38zm.156-2.278h3.023v.739h-3.023v-.739zm5.832-3.54V38h-.878v-5.818h.878zm3.396 0h1.065l1.852 4.523h.069l1.852-4.523h1.065V38h-.835v-4.21h-.054l-1.716 4.202h-.693l-1.716-4.205h-.054V38h-.835v-5.818zm8.381 5.915c-.276 0-.526-.051-.75-.153a1.27 1.27 0 0 1-.531-.452c-.129-.197-.193-.439-.193-.724 0-.246.047-.449.142-.608a1.04 1.04 0 0 1 .383-.378c.161-.093.341-.163.54-.21s.402-.083.608-.108l.636-.074c.163-.021.282-.054.355-.099s.111-.119.111-.222v-.02c0-.248-.07-.44-.21-.577s-.345-.205-.619-.205c-.286 0-.512.063-.676.19s-.276.264-.338.418l-.799-.182c.095-.265.233-.479.415-.642s.395-.284.634-.358.489-.114.752-.114c.175 0 .359.021.554.063a1.62 1.62 0 0 1 .551.222c.173.108.314.262.424.463s.165.457.165.776V38h-.83v-.597h-.034c-.055.11-.137.218-.247.324s-.251.194-.424.264-.378.105-.619.105zm.185-.682a1.22 1.22 0 0 0 .602-.139.98.98 0 0 0 .384-.364c.089-.152.133-.313.133-.486v-.562c-.03.03-.089.059-.176.085s-.183.046-.293.065l-.321.048-.261.034c-.165.021-.315.056-.452.105s-.242.12-.324.213-.119.212-.119.364c0 .21.078.369.233.477a1.03 1.03 0 0 0 .594.159zm3.1.585v-4.364h.821v.693h.045c.08-.235.22-.42.421-.554s.432-.205.687-.205l.188.006.173.014v.813c-.034-.009-.095-.02-.182-.031s-.174-.02-.261-.02c-.201 0-.38.043-.537.128a.95.95 0 0 0-.369.349c-.091.148-.137.316-.137.506V38h-.849zm3.852-1.48l-.006-1.037h.148l1.738-1.847h1.017l-1.983 2.102h-.133l-.781.781zm-.782 1.48v-5.818h.85V38h-.85zm2.756 0l-1.563-2.074.586-.594 2.02 2.668h-1.043zm3.398.088c-.43 0-.8-.092-1.11-.276s-.548-.446-.716-.781-.25-.732-.25-1.185c0-.447.083-.841.25-1.182s.403-.607.704-.798.657-.287 1.063-.287a2.14 2.14 0 0 1 .716.122c.231.081.438.209.622.383s.328.401.434.679.16.613.16 1.008v.301h-3.469v-.636h2.636c0-.224-.045-.421-.136-.594a1.03 1.03 0 0 0-.384-.412c-.163-.1-.354-.151-.574-.151a1.11 1.11 0 0 0-.625.176c-.176.115-.312.267-.409.455a1.32 1.32 0 0 0-.142.605v.497a1.64 1.64 0 0 0 .154.744 1.11 1.11 0 0 0 .434.469c.186.106.403.159.651.159.161 0 .308-.023.44-.068s.247-.117.344-.21a.92.92 0 0 0 .222-.344l.804.145a1.46 1.46 0 0 1-.347.622 1.68 1.68 0 0 1-.622.412c-.248.097-.531.145-.85.145zm4.852-4.452v.682h-2.384v-.682h2.384zm-1.744-1.046h.849v4.128c0 .165.025.289.074.372s.113.137.19.168.166.043.259.043a.99.99 0 0 0 .179-.014l.119-.023.153.702c-.049.019-.119.038-.21.057s-.204.032-.341.034a1.5 1.5 0 0 1-.625-.119 1.07 1.07 0 0 1-.468-.386 1.13 1.13 0 0 1-.179-.656v-4.304zm2.684 7.046v-6h.829v.707h.071c.049-.091.12-.196.213-.315s.222-.223.387-.312.382-.136.653-.136c.352 0 .667.089.943.267s.494.435.651.77.238.739.238 1.21-.078.876-.235 1.213a1.85 1.85 0 0 1-.648.776c-.275.18-.588.27-.94.27-.266 0-.482-.044-.651-.133a1.23 1.23 0 0 1-.392-.312 2.33 2.33 0 0 1-.219-.318h-.051v2.315h-.849zm.832-3.818c0 .307.044.576.133.807s.218.412.387.543.375.193.619.193c.254 0 .466-.067.637-.202s.299-.321.386-.554a2.19 2.19 0 0 0 .133-.787c0-.288-.043-.546-.13-.776s-.214-.41-.387-.543-.383-.199-.639-.199c-.246 0-.454.064-.625.19a1.17 1.17 0 0 0-.383.531 2.22 2.22 0 0 0-.131.795zm4.955-3.636V38h-.85v-5.818h.85zm2.412 5.915c-.276 0-.526-.051-.75-.153a1.27 1.27 0 0 1-.531-.452c-.129-.197-.193-.439-.193-.724 0-.246.047-.449.142-.608a1.04 1.04 0 0 1 .383-.378c.161-.093.341-.163.54-.21s.402-.083.608-.108l.636-.074c.163-.021.282-.054.355-.099s.111-.119.111-.222v-.02c0-.248-.07-.44-.21-.577s-.345-.205-.619-.205c-.286 0-.512.063-.676.19s-.276.264-.338.418l-.799-.182c.095-.265.233-.479.415-.642s.395-.284.634-.358.489-.114.752-.114c.175 0 .359.021.554.063a1.62 1.62 0 0 1 .551.222c.173.108.314.262.424.463s.165.457.165.776V38h-.83v-.597h-.034c-.055.11-.137.218-.247.324s-.251.194-.424.264-.378.105-.619.105zm.185-.682a1.22 1.22 0 0 0 .602-.139.98.98 0 0 0 .384-.364c.089-.152.133-.313.133-.486v-.562c-.03.03-.089.059-.176.085s-.183.046-.293.065l-.321.048-.261.034c-.165.021-.315.056-.452.105s-.242.12-.324.213-.119.212-.119.364c0 .21.078.369.233.477a1.03 1.03 0 0 0 .594.159zm4.938.673c-.422 0-.786-.096-1.091-.287a1.9 1.9 0 0 1-.699-.798c-.163-.339-.244-.727-.244-1.165 0-.443.083-.834.25-1.173s.401-.607.704-.798.661-.287 1.071-.287c.332 0 .627.062.887.185s.469.292.628.511a1.55 1.55 0 0 1 .287.77h-.827c-.046-.205-.15-.381-.313-.528s-.376-.222-.647-.222c-.237 0-.444.063-.622.188s-.314.299-.412.528-.148.496-.148.807a2.12 2.12 0 0 0 .145.824 1.22 1.22 0 0 0 .409.537c.178.127.387.19.628.19a1.05 1.05 0 0 0 .437-.088.89.89 0 0 0 .333-.258c.09-.112.154-.246.19-.403h.827a1.62 1.62 0 0 1-.276.756c-.153.222-.359.396-.616.523s-.556.19-.901.19zm4.582 0c-.43 0-.8-.092-1.111-.276a1.87 1.87 0 0 1-.716-.781c-.167-.337-.25-.732-.25-1.185 0-.447.083-.841.25-1.182a1.94 1.94 0 0 1 .705-.798c.303-.191.657-.287 1.062-.287a2.14 2.14 0 0 1 .716.122c.231.081.438.209.622.383s.329.401.435.679.159.613.159 1.008v.301h-3.469v-.636h2.636c0-.224-.045-.421-.136-.594s-.219-.312-.383-.412-.355-.151-.574-.151c-.239 0-.447.059-.625.176a1.18 1.18 0 0 0-.409.455 1.31 1.31 0 0 0-.142.605v.497c0 .292.051.54.153.744s.249.361.435.469.402.159.65.159a1.36 1.36 0 0 0 .441-.068.95.95 0 0 0 .343-.21c.097-.093.171-.207.222-.344l.804.145a1.46 1.46 0 0 1-.347.622c-.164.176-.372.314-.622.412s-.531.145-.849.145z" class="C"/><path opacity=".4" d="M133.339 172h23.244a28.24 28.24 0 0 0 15.698-4.766l54.528-36.468A28.24 28.24 0 0 1 242.508 126h43.831m-169-75h38.28a28.24 28.24 0 0 1 16.805 5.545l55.243 40.91A28.24 28.24 0 0 0 244.472 103h56.867" stroke="#838383" class="H"/><g stroke="#7545ff" class="H"><path opacity=".4" d="M422.339 114h65.466c5.778 0 11.417-1.772 16.156-5.078l57.116-39.844A28.24 28.24 0 0 1 577.233 64h73.106"/><path opacity=".4" d="M431.339 113h56.017a28.24 28.24 0 0 1 16.073 5.02l59.168 40.96c4.722 3.269 10.329 5.02 16.072 5.02h55.67"/><path opacity=".4" d="M421.374 113.304h226.133"/></g><path d="M650.339 70h-73.106a22.24 22.24 0 0 0-12.723 3.999l-47.743 33.305h130.74v12H515.824l50.188 34.742A22.23 22.23 0 0 0 578.669 158h55.67v12h-55.67c-6.964 0-13.762-2.123-19.488-6.087l-59.167-40.959a22.23 22.23 0 0 0-7.322-3.304c-1.612.232-3.245.35-4.887.35h-65.466v-.696h-.965v-12h9.965V107h56.017a34.18 34.18 0 0 1 4.553.304h1.416a22.23 22.23 0 0 0 7.203-3.303l57.116-39.844A34.24 34.24 0 0 1 577.233 58h73.106v12z" fill="url(#D)" style="mix-blend-mode:multiply" class="L"/><path d="M484.346 220.727c0 .714-.136 1.321-.406 1.822s-.635.883-1.1 1.147-.982.393-1.559.393-1.104-.132-1.567-.396-.827-.647-1.096-1.147-.402-1.107-.402-1.819.134-1.321.402-1.822.634-.882 1.096-1.144.985-.396 1.567-.396 1.097.132 1.559.396.831.644 1.1 1.144.406 1.108.406 1.822zm-1.404 0c0-.462-.069-.852-.207-1.17s-.329-.558-.579-.722-.541-.246-.875-.246-.627.082-.876.246-.443.405-.582.722-.204.708-.204 1.17.068.852.204 1.17.333.558.582.722.541.246.876.246.626-.082.875-.246.442-.405.579-.722.207-.707.207-1.17zm2.403 3.273v-4.909h1.32v.856h.051c.09-.304.24-.534.451-.69s.454-.237.729-.237c.068 0 .141.005.22.013a1.83 1.83 0 0 1 .208.035v1.209c-.064-.02-.153-.037-.265-.052s-.217-.022-.311-.022c-.2 0-.379.044-.536.131a.96.96 0 0 0-.371.358c-.09.153-.134.33-.134.531V224h-1.362zm5.672.096c-.503 0-.935-.107-1.297-.32s-.637-.513-.831-.895-.288-.82-.288-1.316c0-.503.097-.944.291-1.324a2.16 2.16 0 0 1 .834-.891c.36-.216.788-.323 1.285-.323.428 0 .803.078 1.125.233s.576.374.764.655.291.612.31.991h-1.285c-.036-.245-.132-.442-.288-.591s-.355-.227-.604-.227c-.211 0-.395.057-.553.173s-.277.278-.364.495-.131.48-.131.789c0 .314.043.58.128.799s.21.387.367.502.342.173.553.173c.156 0 .295-.032.419-.096a.81.81 0 0 0 .31-.278c.083-.124.137-.272.163-.444h1.285c-.022.375-.124.705-.307.99s-.432.505-.751.665-.698.24-1.135.24zm4.426-2.934V224h-1.362v-6.546h1.324v2.503h.057a1.39 1.39 0 0 1 .537-.681c.247-.166.557-.249.93-.249a1.72 1.72 0 0 1 .892.224c.255.147.454.359.594.636s.213.604.211.987V224h-1.361v-2.883c.002-.302-.075-.538-.23-.706s-.369-.253-.646-.253a1 1 0 0 0-.492.119c-.141.078-.252.193-.333.345s-.119.329-.121.54zm6.492 2.934c-.505 0-.94-.103-1.304-.307s-.641-.499-.837-.876-.295-.828-.295-1.345c0-.505.098-.948.295-1.33a2.18 2.18 0 0 1 .827-.892c.358-.213.778-.319 1.26-.319a2.57 2.57 0 0 1 .904.156c.281.103.526.257.735.464s.375.467.492.78.176.675.176 1.093v.374h-4.145v-.844h2.863c0-.196-.042-.37-.127-.521s-.204-.27-.355-.355-.323-.131-.521-.131c-.207 0-.39.048-.55.144s-.281.221-.371.38a1.08 1.08 0 0 0-.137.528v.802c0 .243.045.453.134.63a.99.99 0 0 0 .387.409 1.17 1.17 0 0 0 .591.143 1.31 1.31 0 0 0 .416-.063.87.87 0 0 0 .322-.192.83.83 0 0 0 .205-.313l1.259.083c-.064.302-.195.566-.393.792a1.96 1.96 0 0 1-.76.524c-.309.124-.666.186-1.071.186zm7.226-3.605l-1.246.076c-.022-.106-.068-.202-.138-.287a.72.72 0 0 0-.278-.208c-.113-.053-.248-.08-.406-.08-.211 0-.389.045-.534.134s-.217.205-.217.352c0 .117.047.216.141.297s.254.146.482.195l.889.179c.477.098.833.256 1.067.473s.352.503.352.857c0 .321-.095.604-.285.847s-.445.432-.773.568-.702.202-1.128.202c-.65 0-1.168-.136-1.553-.406a1.58 1.58 0 0 1-.675-1.112l1.339-.071a.69.69 0 0 0 .294.454c.156.102.355.154.598.154s.43-.046.575-.138.222-.214.224-.361c-.002-.124-.054-.225-.157-.304s-.26-.142-.473-.185l-.85-.169c-.479-.096-.836-.262-1.07-.499s-.349-.538-.349-.904c0-.316.085-.587.256-.815a1.65 1.65 0 0 1 .725-.528c.314-.123.68-.185 1.1-.185.62 0 1.108.131 1.464.393s.566.619.626 1.071zm3.58-1.4v1.023h-2.956v-1.023h2.956zm-2.285-1.176h1.362v4.576c0 .126.019.224.057.294s.092.117.16.144a.65.65 0 0 0 .243.042c.064 0 .128-.006.192-.016l.147-.029.214 1.013-.288.074a2.34 2.34 0 0 1-.45.054c-.329.013-.616-.031-.863-.131a1.2 1.2 0 0 1-.572-.467c-.137-.211-.204-.477-.202-.799v-4.755zm3.172 6.085v-4.909h1.32v.856h.051c.09-.304.24-.534.451-.69s.454-.237.729-.237c.068 0 .141.005.22.013a1.83 1.83 0 0 1 .208.035v1.209a1.67 1.67 0 0 0-.265-.052c-.113-.015-.217-.022-.31-.022a1.09 1.09 0 0 0-.537.131c-.156.085-.279.205-.371.358s-.134.33-.134.531V224h-1.362zm4.942.093c-.313 0-.592-.055-.837-.163s-.439-.274-.582-.489-.211-.488-.211-.812c0-.273.05-.502.15-.687s.237-.335.409-.448a1.97 1.97 0 0 1 .589-.255 4.47 4.47 0 0 1 .696-.122l.691-.083c.174-.028.301-.068.38-.121s.118-.133.118-.237v-.019c0-.203-.064-.359-.192-.47s-.304-.166-.537-.166c-.245 0-.439.054-.584.163a.75.75 0 0 0-.288.403l-1.259-.103c.064-.298.189-.556.377-.773s.429-.388.725-.505.644-.179 1.036-.179c.273 0 .534.032.783.096a2.06 2.06 0 0 1 .668.297c.196.134.35.307.463.518s.17.459.17.751V224h-1.291v-.681h-.039a1.38 1.38 0 0 1-.316.406c-.132.115-.291.206-.476.272s-.4.096-.643.096zm.39-.94c.2 0 .377-.039.531-.118a.95.95 0 0 0 .361-.326c.087-.137.131-.291.131-.464v-.521a.7.7 0 0 1-.176.077l-.246.061-.275.048-.249.035c-.16.023-.3.061-.419.112a.67.67 0 0 0-.278.207.51.51 0 0 0-.099.32c0 .185.067.327.201.425a.88.88 0 0 0 .518.144zm6.042-4.062v1.023h-2.956v-1.023h2.956zm-2.285-1.176h1.361v4.576c0 .126.02.224.058.294a.31.31 0 0 0 .16.144.65.65 0 0 0 .243.042 1.22 1.22 0 0 0 .191-.016l.147-.029.215 1.013-.288.074a2.35 2.35 0 0 1-.451.054 2.07 2.07 0 0 1-.863-.131c-.245-.1-.435-.256-.572-.467s-.203-.477-.201-.799v-4.755zm3.172 6.085v-4.909h1.362V224h-1.362zm.684-5.542a.74.74 0 0 1-.521-.201c-.143-.137-.214-.3-.214-.489s.071-.349.214-.483.319-.205.521-.205.375.069.518.205.217.295.217.483a.65.65 0 0 1-.217.489.73.73 0 0 1-.518.201zm3.986 5.638c-.496 0-.926-.106-1.288-.317s-.638-.509-.834-.888-.294-.824-.294-1.326c0-.508.098-.951.294-1.33s.474-.678.834-.889.792-.319 1.288-.319.925.106 1.285.319.641.508.837.889.294.822.294 1.33c0 .502-.098.944-.294 1.326a2.16 2.16 0 0 1-.837.888c-.36.211-.788.317-1.285.317zm.007-1.055c.225 0 .414-.064.565-.192a1.18 1.18 0 0 0 .342-.53 2.29 2.29 0 0 0 .119-.764c0-.286-.04-.54-.119-.764s-.19-.4-.342-.53-.34-.195-.565-.195a.87.87 0 0 0-.576.195 1.2 1.2 0 0 0-.348.53 2.34 2.34 0 0 0-.115.764c0 .285.038.54.115.764s.195.4.348.53.348.192.576.192zm4.656-1.879V224h-1.361v-4.909h1.297v.866h.058a1.37 1.37 0 0 1 .546-.678c.256-.168.566-.252.93-.252.341 0 .639.074.892.224a1.51 1.51 0 0 1 .591.639c.141.275.211.603.211.984V224h-1.361v-2.883c.002-.3-.075-.535-.23-.703s-.37-.256-.643-.256c-.183 0-.345.04-.486.119a.82.82 0 0 0-.326.345c-.076.149-.116.329-.118.54z" fill="#3c0e84"/><path d="M504.105 114c0 1.921 1.28 3.543 3.034 4.061V214a1.2 1.2 0 0 0 2.4 0v-95.939c1.753-.518 3.033-2.14 3.033-4.061 0-2.338-1.895-4.233-4.233-4.233s-4.234 1.895-4.234 4.233z" fill="url(#E)" stroke="#fff" stroke-linejoin="round"/><rect x="598.368" y="91.902" width="61.942" height="42.382" rx="3.765" class="M"/><path d="M625.715 94.227c.147.148.662 2.82.122 3.947s-3.359 2.904-4.34 3.107-3.942.174-5.416.605-2.719.686-3.972 3.28c-1.132 2.345-1.682 8.919-2.99 12.099-.249.606-.463 1.234-.498 1.888l-.069 1.28a2 2 0 0 0 1.186 1.937h0c1.092.485 2.37-.087 2.775-1.212a59.88 59.88 0 0 1 1.55-3.886c1.481-3.334 4.122-2.175 4.453 1.458l.255 2.516.43 3.467c.495 3.666 4.011 7.067 7.709 7.005l8.309-.14c2.935-.05 4.687-2.763 5.108-5.668h0c.126-.872 1.104-3.982 1.816-7.119.313-1.376 3.403-2.144 3.848-.805h0c.227.684.449 1.305.657 1.86.679 1.807 2.764 2.486 4.472 1.585h0c1.579-.833 2.272-2.723 1.66-4.399-.616-1.685-1.325-3.758-1.673-5.25-.69-2.954-3.036-8.976-5.484-9.905s-6.718-.43-7.46-.761-4.92-2.167-5.16-3.173c-.118-.496-.11-1.404-.071-2.199.04-.812-.595-1.517-1.409-1.517h-5.808 0z" class="N"/><path d="M617.451 104.076c-.722.881.662 2.385 1.079 3.17s4.565 4.087 5.592 3.453 4.487-6.388 1.666-7.09-7.307-.791-8.337.467zm25.08 0c.722.881-.662 2.385-1.079 3.17s-4.565 4.087-5.592 3.453-4.487-6.388-1.666-7.09 7.308-.791 8.337.467z" fill="#666"/><path d="M628.245 104.317c-.05-.117-.15-.202-.277-.216-.79-.086-3.7-.123-5.834 2.851l-.558.814c-.905 1.394-.041 1.127 1.058-.121.605-.688 1.403-1.372 2.394-1.772 1.217-.492 2.088-.676 2.666-.734.36-.037.694-.489.551-.822h0zm.123-1.716c-.05-.117-.152-.201-.279-.21-.765-.053-3.506.041-5.832 2.845h0c-.593.714.135.757.835.146.47-.411 1.134-.852 2.058-1.225 1.218-.492 2.088-.676 2.666-.734.36-.037.695-.489.552-.822h0zm.606 12.197c-.173-.05-3.604-.563-6.031 2.819h0c-1.388 1.935-.781 1.971.915.299.584-.577 1.252-1.084 1.978-1.377 1.415-.572 2.362-.728 2.925-.754.259-.012.497-.325.395-.563l-.182-.424h0zm-.145-1.913c-.173-.049-3.311-.833-6.277 2.281h0c-1.422 1.492-.711 1.784.841.427.59-.516 1.222-.956 1.856-1.212 1.386-.559 2.257-.699 2.765-.71.311-.007.667-.21.745-.512l.07-.273v-.001zm-.001-6.307c0-.322-.26-.584-.581-.566-2.251.131-5.067 1.057-7.117 4.054l-.445.672c-.963 1.512-.226 1.325.922-.052.616-.738 1.441-1.535 2.514-2.214 1.598-1.012 3.204-1.226 4.065-1.259.344-.013.642-.291.642-.635h0zm-.221 2.28c0-.322-.261-.585-.582-.559-2.193.176-4.684 1.357-7.117 4.047-.858.948-1.364 1.485-1.49 1.865-.03.092.029.255.081.337h0c.176.282.494.168.67-.114.508-.815 1.667-2.375 3.73-3.682a8.31 8.31 0 0 1 4.066-1.259c.344-.013.642-.29.642-.635h0zm.22 2.035c0-.322-.26-.584-.582-.566-2.244.131-5.035 1.046-7.362 3.833h0c-1.182 1.415-.192 1.59 1.126.3.573-.561 1.273-1.143 2.111-1.673 1.598-1.012 3.204-1.226 4.065-1.259.344-.013.642-.29.642-.635h0z" class="F"/><path d="M620.742 109.339c.087-.193.406-.19.518-.01.412.658 1.377 1.706 3.417 1.918h0c1.299.135 1.806.799.501.844l-.671.003c-3.812-.085-3.802-2.377-3.783-2.687.002-.024.008-.046.018-.068h0zm-.776 2.656s.858 1.772 4.541 1.809h0c1.563.016 2.114.396.557.537l-.846.052c-5.19.18-4.535-1.765-4.507-1.842l.255-.556h0zm-.577 2.361a6.61 6.61 0 0 0 5.276 1.296h0c.956-.176 1.423.395.463.548l-.463.056c-1.856.159-3.411-.085-4.247-.429-.592-.243-.849-.856-1.03-1.471h.001z" class="B"/><g class="F"><path d="M630.205 131.272v-13.835c0-.313-.253-.566-.566-.566s-.566.253-.566.566v13.835c0 .313.254.566.566.566s.566-.253.566-.566z"/><use xlink:href="#H"/><use xlink:href="#I"/><use xlink:href="#H" y="3.042"/><use xlink:href="#I" y="2.991"/><use xlink:href="#I" y="4.487"/><path d="M627.647 126.062c.025-.724 3.189-.828 3.733-.427s.277.806 0 .948-3.543.19-3.655 0-.087-.258-.078-.521h0zm0 1.495c.025-.723 3.189-.827 3.733-.427s.277.806 0 .948-3.543.19-3.655 0-.087-.258-.078-.521h0z"/><use xlink:href="#H" y="10.52"/><path d="M630.205 105.307v-9.338c0-.313-.253-.566-.566-.566s-.566.254-.566.566v9.338c0 .313.254.566.566.566s.566-.253.566-.566z"/><use xlink:href="#I" y="-22.974"/><use xlink:href="#I" y="-21.478"/><use xlink:href="#I" y="-19.983"/><use xlink:href="#I" y="-18.487"/><path d="M627.647 103.087c.025-.723 3.189-.827 3.733-.426s.277.805 0 .948-3.543.189-3.655 0-.087-.258-.078-.521v-.001z"/></g><path d="M621.889 105.799c0 .001.965 2.907 2.775 2.986h0c1.603.07 2.09.766.485.74h0c-2.64-.041-3.429-1.969-3.608-2.554-.033-.109-.023-.223.018-.329l.329-.843h.001zm-2.231 10.567c0 .001 1.722 1.74 4.587 1.63h0c.96-.036 1.423.37.467.458-.256.024-.527.031-.814.021-4.557-.169-4.241-2.101-4.24-2.109h0zm.516 2.625c.009.002 2.822.881 4.682.318.467-.141.93-.364 1.365-.642.615-.393 1.152-.146.524.226h0c-2.207 1.304-5.352 1.324-6.454.569-.07-.048-.115-.124-.125-.208-.011-.092-.019-.21.008-.263h0zm1.139 2.165c-.089-.163.1-.331.285-.311.939.098 3.702.256 5.116-1.095h0c.169-.161.716.073.563.25-.187.217-.397.407-.631.559-1.851 1.202-4.731 1.088-5.298.631-.022-.018-.021-.009-.035-.034h0z" class="B"/><path d="M631.175 104.317c.051-.117.151-.202.278-.216.79-.086 3.7-.123 5.834 2.851l.558.814c.905 1.394.04 1.127-1.058-.121-.606-.688-1.404-1.372-2.394-1.772-1.217-.492-2.088-.676-2.666-.734-.36-.037-.694-.489-.552-.822h0zm-.122-1.716c.05-.117.152-.201.279-.21.765-.053 3.506.041 5.832 2.845h0c.593.714-.135.757-.835.146-.47-.411-1.134-.852-2.058-1.225-1.218-.492-2.088-.676-2.666-.734-.36-.037-.695-.489-.552-.822h0zm-.606 12.197c.174-.05 3.604-.563 6.031 2.819h0c1.388 1.935.781 1.971-.915.299-.584-.577-1.252-1.084-1.978-1.377-1.415-.572-2.362-.728-2.925-.754-.259-.012-.497-.325-.395-.563l.182-.424h0zm.147-1.913c.173-.049 3.31-.833 6.276 2.281h0c1.422 1.492.711 1.784-.841.427-.59-.516-1.222-.956-1.856-1.212-1.386-.559-2.257-.699-2.764-.71-.312-.007-.668-.21-.745-.512l-.071-.273.001-.001zm-.001-6.307c0-.322.261-.584.582-.566 2.251.131 5.067 1.057 7.117 4.054l.445.672c.963 1.512.225 1.325-.923-.052a10.79 10.79 0 0 0-2.513-2.214c-1.599-1.012-3.204-1.226-4.065-1.259-.345-.013-.643-.291-.643-.635h0zm.22 2.28c0-.322.261-.585.582-.559 2.194.176 4.684 1.357 7.117 4.047.859.948 1.365 1.485 1.49 1.865.031.092-.029.255-.081.337h0c-.176.282-.494.168-.669-.114-.509-.815-1.668-2.375-3.731-3.682-1.598-1.012-3.204-1.226-4.065-1.259-.345-.013-.643-.29-.643-.635h0zm-.22 2.035c0-.322.261-.584.582-.566 2.245.131 5.035 1.046 7.362 3.833h0c1.182 1.415.193 1.59-1.125.3a12.89 12.89 0 0 0-2.111-1.673c-1.599-1.012-3.204-1.226-4.065-1.259-.345-.013-.643-.29-.643-.635h0z" class="F"/><g class="B"><path d="M638.679 109.339c-.087-.193-.406-.19-.518-.01-.412.658-1.377 1.706-3.417 1.918h0c-1.299.135-1.806.799-.501.844l.671.003c3.812-.085 3.802-2.377 3.783-2.687-.002-.024-.008-.046-.018-.068h0zm.777 2.656s-.858 1.772-4.541 1.809h0c-1.563.016-2.114.396-.558.537l.847.052c5.19.18 4.535-1.765 4.507-1.842l-.255-.556h0zm.577 2.361c-.466.392-2.475 1.811-5.276 1.296h0c-.956-.176-1.424.395-.463.548l.463.056c1.855.159 3.411-.085 4.246-.429.592-.243.85-.856 1.03-1.471h0zm-2.501-8.557c0 .001-.966 2.907-2.775 2.986h0c-1.603.07-2.09.766-.486.74h0c2.64-.041 3.43-1.969 3.609-2.554.033-.109.023-.223-.019-.329l-.328-.843h-.001zm2.231 10.567c0 .001-1.721 1.74-4.587 1.63h0c-.959-.036-1.423.37-.467.458.256.024.527.031.814.021 4.557-.169 4.242-2.101 4.24-2.109h0zm-.515 2.625c-.009.002-2.823.881-4.683.318-.467-.141-.929-.364-1.365-.642-.615-.393-1.152-.146-.523.226h0c2.206 1.304 5.352 1.324 6.454.569.07-.048.114-.124.124-.208.011-.092.019-.21-.007-.263h0zm-1.14 2.165c.089-.163-.1-.331-.285-.311-.939.098-3.702.256-5.116-1.095h0c-.169-.161-.716.073-.563.25.187.217.397.407.631.559 1.851 1.202 4.731 1.088 5.298.631.022-.018.021-.009.035-.034h0zm-9.642-15.357c.116-.642.509-1.128 1.097-1.054s1.03.392 1.251 1.054.103 5.772.125 6.748-.29 4.652-.6 4.898-1.339.466-1.609 0-.455-10.59-.264-11.645v-.001z"/><path d="M615.612 103.029c.738-.554 5.296-1.496 8.165-1.006s5.884 1.741 6.031 2.281-.343.76-.539.858-1.446-1.393-5.271-1.922-8.472 2.06-8.883 1.317.007-1.16.497-1.528h0z"/><path d="M643.883 103.029c-.738-.554-5.296-1.496-8.165-1.006s-5.884 1.741-6.032 2.281.344.76.54.858 1.446-1.393 5.271-1.922 8.472 2.06 8.882 1.317-.006-1.16-.496-1.528h0zm-31.071 2.137c.469-.606 3.242-.421 3.757.388s.441 2.803 0 3.547-2.193.995-3.757 6.227l-1.665 5.679c-.154.54-.763.816-1.267.567h0c-.386-.19-.582-.625-.464-1.039.634-2.232 2.555-9.068 2.817-11.008.315-2.33-.26-3.277.579-4.361zm34.695 0c-.47-.606-3.242-.421-3.757.388s-.441 2.803 0 3.547 2.193.995 3.757 6.227l1.665 5.679c.153.54.763.816 1.267.567h0c.386-.19.582-.625.464-1.039-.635-2.232-2.555-9.068-2.817-11.008-.315-2.33.26-3.277-.579-4.361z"/><mask id="A"><path d="M629.096 109a.73.73 0 0 1 .728.728v15.659a.73.73 0 0 1-.728.728h-14.029a.73.73 0 0 1-.728-.728v-15.659a.73.73 0 0 1 .728-.728h14.029z"/></mask></g><path d="M629.096 109a.73.73 0 0 1 .728.728v15.659a.73.73 0 0 1-.728.728h-14.029a.73.73 0 0 1-.728-.728v-15.659a.73.73 0 0 1 .728-.728h14.029z" fill="#9b51e0" fill-opacity=".57"/><path d="M614.339 109.728h1-1zm0 15.659h-1 1zm15.485 0h-1 1zm0-15.659h1-1zm-1 0v15.659h2v-15.659h-2zm.272 15.387h-14.029v2h14.029v-2zm-13.757.272v-15.659h-2v15.659h2zM615.067 110h14.029v-2h-14.029v2zm.272-.272c0 .15-.122.272-.272.272v-2a1.73 1.73 0 0 0-1.728 1.728h2zm-.272 15.387c.15 0 .272.122.272.272h-2a1.73 1.73 0 0 0 1.728 1.728v-2zm13.757.272c0-.15.122-.272.272-.272v2a1.73 1.73 0 0 0 1.728-1.728h-2zm2-15.659a1.73 1.73 0 0 0-1.728-1.728v2c-.15 0-.272-.122-.272-.272h2z" fill="#000" mask="url(#A)"/><rect x="598.368" y="141.618" width="61.942" height="42.382" rx="3.765" class="M"/><path d="M643.517 180.403h-8.847c-2.94 0-4.646-2.739-5.665-5.497h0c-1.174-3.172-2.651-3.172-3.943-2.619s-3.345 1.873-4.715 1.86-2.504-1.297-2.491-1.854.567-1.666.198-2.404c-.206-.41-.467-.536-.66-.565s-.348-.165-.389-.354c-.044-.203-.062-.467.03-.74a.61.61 0 0 0-.198-.624h0c-.314-.231-.392-.674-.191-1.007h0c.665-1.096-.4-2.027-1.168-3.055-.162-.217-.27-.469-.285-.757-.042-.834 1.418-1.545 2.029-2.767 1.107-2.213-.185-3.136-.552-4.058s.367-6.088 2.951-8.117 7.009-3.64 14.02-.991 8.3 5.971 8.669 10.953c.206 2.766-3.32 7.563-4.057 8.855s1.563 9.575 3.087 11.151c.54.56 1.352 1.548 2.177 2.59h0z" class="N"/><path d="M634.774 180.402h-1.008c-.096 0-.175-.076-.181-.173h0l-.149-2.077-.024-.265-.242-2.003c-.799-5.598-2.397-9.404-3.162-10.984-.193-.398.054-.89.492-.953h0c.23-.032.459.064.588.257 1.992 3.01 2.932 7.858 3.371 11.983a64.81 64.81 0 0 1 .178 1.94l.026.358.111 1.917h0z" class="F"/><g class="B"><path d="M630.135 167.767c0-.76 3.321-1.66 4.059-.922s1.291 2.03.922 2.399-1.845-.554-2.952-.369-1.475.184-1.66.184-.369-.553-.369-1.291v-.001z"/><path d="M630.689 169.797c.185-.369 1.292-.554 2.214-.554s2.264.6 2.331.761.436 1.453.252 1.637-1.727-.749-2.801-.651-1.627.098-1.811-.086-.369-.738-.185-1.107h0zm.553 2.213c.131-.391 1.107-.553 2.214-.369s1.947.49 2.08.706.687 1.324.503 1.692-1.107-.553-2.214-.737-1.845 0-2.029-.185-.738-.553-.554-1.106v-.001z"/><path d="M631.796 173.855c.292-.291 1.107-.369 2.398 0s1.844.738 2.029 1.291.369 1.292.185 1.476-1.584-.836-2.268-.971-1.422-.136-1.791-.32-.922-1.107-.553-1.476h0z"/><path d="M632.349 176.069c.13-.391 1.475-.185 2.767.369s1.259.916 1.367 1.288.662 1.479.293 1.663-1.166-1.055-2.151-1.265-1.369-.199-1.823-.482-.638-1.02-.453-1.573z"/><path d="M636.912 180.403h-2.247a3.6 3.6 0 0 1-1.08-.173h0c-.338-.112-.595-.2-.683-.288-.184-.184-.369-1.29-.184-1.659.07-.141.352-.173.718-.131s.827.165 1.227.333c.243.103.466.223.639.351.736.554 1.29.738 1.475 1.106.047.095.094.261.135.46v.001zm4.292-21.49c-.553 2.582-5.165 7.01-6.272 7.194-.648.107-2.741.026-4.557-.133l-.719-.07c-.982-.103-1.793-.227-2.103-.351-.922-.369-1.66-3.689-2.952-3.32s-1.66.922-1.66 1.291l.026 2.446v.002c-.028.472-.089.875-.21 1.057-.323.484-3.387.893-4.802.526h0c-.321-.081-.463-.412-.418-.739.133-.951.376-2.878.239-3.292-.185-.553-1.107-1.291-1.107-1.475s1.015-.646 1.384-1.937.184-2.398.092-2.675c-.369-1.107-1.107-2.767-.369-5.534s3.426-4.341 5.165-4.981c3.505-1.291 11.068-.184 14.389 2.583s4.427 6.825 3.874 9.408z"/></g><path d="M618.698 155.592c.666-.665 2.583 1.476 2.214 3.69s-1.66 2.576-2.214 2.303.804-1.411.494-2.964-1.601-1.922-.494-3.028v-.001zm10.755 10.382l-.356-.032a.38.38 0 0 1-.343-.403c.081-1.289.254-2.157.091-2.568-.369-.922-4.612-3.874-6.088-5.349-.403-.403-.654-.902-.807-1.414-.475-1.591-.363-1.603.253-.062h0c.369.922 5.71 4.879 6.642 5.534.509.358.986 2.258.608 4.294h0z" class="F"/><path d="M629.766 168.448c-.186.426-3.689.98-4.98 1.717s-3.137 3.136-3.874 3.136-2.399-1.291-2.399-1.66.185-.922.185-1.66-.738-.553-.922-1.845c-.01-.066.08-.13.238-.193h.002c.236-.093.621-.179 1.053-.253l.003-.001.266-.042c1.039-.158 2.228-.245 2.324-.181.16.109.011.595.287.808.022.017.044.036.069.046h0c.369.185 2.952-.553 3.505-1.106s1.283-1.406 1.01-3.009c-.175-1.031 1.059-1.322 2.061-1.056.989.263.993 1.45.943 2.472-.015.298-.006.598.045.855.185.922.369 1.544.185 1.972h-.001z" class="B"/><g class="F"><path d="M622.966 165.969v.003c-.027.473-.088.875-.21 1.058-.212.317-1.605.602-2.937.657-1.129.047-2.671-1.763-1.549-1.897h0c.428-.052-.428 1.553 0 1.673s1.166.12.981-.249-.127-1.374.03-1.426-.098 1.642.212 1.627.909-.002.887-.102-.371-1.477-.105-1.525.172 1.59.312 1.507.859.21.961-.028-.364-1.433-.131-1.481.245 1.389.424 1.409.546.019.73-.35-.184-1.172 0-1.323c.106-.088.273.117.395.447z"/><path d="M618.111 168.42c-.018-.116.261-.588.376-.615l.402-.083c.037-.007.075.067.058.101h0c-.12.24.119 1.051-.065 1.051s-.184-.922-.186-.98.002-.127-.367 0 .184 1.164 0 1.164c-.102 0-.168-.335-.218-.638zm3.762-.224c.035.048.021.125-.038.125h0c-.369 0 0-.554-.185-.738s-.184 0-.411-.039.042.962-.242.93c-.103-.013.099-.891 0-.876s-.27-.015-.476 0 .022.907-.249.944-.098-.59-.009-.845-.458.07-.554 0 .096.993-.088.993-.185-.738-.185-.923h0c0-.041.026-.138.067-.144.996-.143 2.069-.217 2.16-.156.142.096.039.493.21.729z"/></g><mask id="B" class="B"><path d="M634.251 158.284c-4.756 0-8.612 3.856-8.612 8.612s3.856 8.611 8.612 8.611 8.611-3.855 8.611-8.611-3.855-8.612-8.611-8.612zm5.048 8.612a4.7 4.7 0 0 0-4.697-4.697h-.702a4.7 4.7 0 0 0-4.698 4.697h0a4.7 4.7 0 0 0 4.698 4.697h.702a4.7 4.7 0 0 0 4.697-4.697h0z" class="L"/></mask><path d="M634.251 158.284c-4.756 0-8.612 3.856-8.612 8.612s3.856 8.611 8.612 8.611 8.611-3.855 8.611-8.611-3.855-8.612-8.611-8.612zm5.048 8.612a4.7 4.7 0 0 0-4.697-4.697h-.702a4.7 4.7 0 0 0-4.698 4.697h0a4.7 4.7 0 0 0 4.698 4.697h.702a4.7 4.7 0 0 0 4.697-4.697h0z" fill="#eb5757" class="L"/><path d="M626.368 166.896c0-4.354 3.529-7.883 7.883-7.883v-1.458c-5.159 0-9.341 4.182-9.341 9.341h1.458zm7.883 7.883c-4.354 0-7.883-3.53-7.883-7.883h-1.458c0 5.158 4.182 9.34 9.341 9.34v-1.457zm7.882-7.883c0 4.353-3.529 7.883-7.882 7.883v1.457c5.158 0 9.34-4.182 9.34-9.34h-1.458zm-7.882-7.883c4.353 0 7.882 3.529 7.882 7.883h1.458c0-5.159-4.182-9.341-9.34-9.341v1.458zm-.351 3.914h.702v-1.457h-.702v1.457zm.702 7.937h-.702v1.458h.702v-1.458zm0 1.458c2.996 0 5.425-2.43 5.425-5.426h-1.457a3.97 3.97 0 0 1-3.968 3.968v1.458zm-6.128-5.426a5.43 5.43 0 0 0 5.426 5.426v-1.458a3.97 3.97 0 0 1-3.969-3.968h-1.457zm6.128-3.969a3.97 3.97 0 0 1 3.968 3.969h1.457c0-2.997-2.429-5.426-5.425-5.426v1.457zm-.702-1.457c-2.997 0-5.426 2.429-5.426 5.426h1.457a3.97 3.97 0 0 1 3.969-3.969v-1.457z" mask="url(#B)" class="B"/><rect x="598.368" y="43" width="61.942" height="41.567" rx="3.765" class="M"/><g clip-path="url(#F)"><path d="M643.201 65.692l-3.972 8.25c-.225.503-.369 1.038-.466 1.58-.603 3.349-2.076 6.558-2.738 7.885-.209.421-.306.89-.259 1.358h0l.596 5.904c.333 3.299-2.257 6.164-5.573 6.164h0c-3.06 0-5.554-2.455-5.601-5.515l-.056-3.588c-.021-1.31-.482-2.573-1.33-3.572-1.861-2.191-4.279-5.023-5.28-7.107-.787-1.638-2.5-3.396-3.133-5.876-.38-1.487-1.592-3.738-1.773-4.282l-.17-.595c-.208-.904.426-1.91 1.323-1.675 2.642.693 4.18 8.742 6.887 7.726 3.281-1.23.103-24.391 3.525-24.545 2.095-.095 2.039 7.017 2.036 12.489-.004 3.458.017 6.263.615 6.176.918-.136.806-7.269 1.352-12.86.372-3.81 1.051-6.905 2.569-6.588 3.747.781-.819 19.275.48 19.453.839.116 2.906-6.33 4.24-11.193.732-2.672 1.514-4.696 2.32-4.541 2.272.436.693 5.652.161 8.343s-3.041 8.537-2.02 8.958c1.63.672 3.134-2.35 4.31-4.309 1.247-2.078 3.799-7.223 5.484-5.876 1.102.882-1.958 4.7-3.525 7.834l-.002.001z" class="N"/><g class="B"><path d="M624.809 53.894c-.055 0-.109-.008-.16-.029-.441-.179-.851-.622-.703-1.065.156-.469.468-.781.624-1.405.085-.339-.312-2.655.625-2.655s.313 2.186.624 2.811.625.625.625 1.249c0 .615-.665 1.229-1.549 1.1a.58.58 0 0 0-.086-.007h0zm5.744-.842c-.451-.205-.867-.719-.663-1.168s.547-.728.767-1.333c.12-.328-.034-2.673.897-2.575s.084 2.207.329 2.86.556.686.492 1.308c-.062.593-.745 1.12-1.576.951l-.246-.043h0 0zm6.824 2.62c-.364-.259-.645-.789-.386-1.153s.613-.552.915-1.052c.163-.271.434-2.382 1.245-2.134s-.31 1.976-.205 2.6.375.707.209 1.248-.923.898-1.666.526l-.111-.035h-.001zm6.362 6.252c-.039-.025-.074-.055-.1-.093-.232-.328-.322-.829-.016-1.077.324-.262.688-.342 1.083-.715.215-.202.985-2.029 1.651-1.603s-.772 1.696-.834 2.282.16.728-.125 1.172c-.279.437-1.031.572-1.601.077a.49.49 0 0 0-.058-.044h0z"/><path d="M623.915 54.943c.008-.117.186-.737.342-.737s1.249-.625 1.718-.156.553.693.355.893-.668 1.293-.511 2.854 1.093 2.186 1.093 2.498-.313.78-.624.937-1.562.468-1.874.313-.53-.146-.499-.542.656-1.957.656-3.518-.686-2.117-.656-2.542h0zm5.651-.893c-.156-.313-.022-.753.145-.923s1.931-.128 2.064.242.334.609 0 1.113-.686 2.232-.667 3.711.643 2.103.488 2.571-.195.4-.488.59-1.386-.122-1.699-.278-.312-.469-.312-.78.78-1.405.937-3.279-.312-2.654-.469-2.966h.001zm7.282 1.441c.272-.201 1.321.32 1.458.641s.272.643.097.945-.722 1.143-.931 2.178-.122 2.136-.142 2.448-.341.448-.653.428-1.227-.39-1.373-.555-.282-.487-.107-.789 1.178-1.334 1.403-2.415-.019-2.191 0-2.503.153-.308.247-.377h.001zm6.075 6.47c.035-.165.186-.538.54-.502s.999.513 1.041.828-.021.621-.205.742-.675.18-1.17 1.035-.53 1.804-.593 2.11-.247.427-.4.396-1.25-.895-1.188-1.201-.108-.247.117-.567.715-.378 1.21-1.233.581-1.289.648-1.607z"/><path d="M624.102 61.701c.157-.312 2.186-.624 2.342-.468s.469.781.156.937-.624 1.718-.624 2.967.78 2.186.937 2.498-.313.781-.469.781-2.029.313-2.186.156-.313-.253-.156-.673.468-1.669.624-3.387-.468-1.874-.624-2.186a.66.66 0 0 1 0-.624h0zm5.152-.468c.156-.156 1.939-.105 2.141.182s.11.663 0 .943-.7.595-.718 2.546.45 2.888.45 3.356-.156.469-.468.469-1.562-.156-1.874-.313-.312-.625-.312-.937.78-1.405.937-2.967-.14-2.186-.226-2.498-.086-.624.07-.781zm5.729.48c.263-.23 1.75.11 1.869.43s.079.352-.077.638-.974.861-1.227 2.409.206 3.381-.034 3.872-.551.471-.707.462-1.539-.409-1.675-.73-.418-.809-.243-1.11.993-.877 1.578-2.717.312-2.484.331-2.796.02-.312.185-.458h0zm5.597 3.898c.216-.274 1.466.621 1.372 1.079h0c-.097.474-.645.684-.951 1.06a5.13 5.13 0 0 0-.56.861c-.526 1.008-.408 1.988-.472 2.294s-.263.504-.576.479-1.29-.704-1.38-1.041-.027-.643.157-.765 1.106-.729 1.664-1.889.53-1.804.746-2.078z"/><path d="M624.258 68.884c-.24.959.624 3.592.78 5.934l.156 5.465c.156.313 1.718.156 1.718-.313s-1.093-3.591-.781-5.777.937-4.216.469-5.309-2.186-.625-2.342 0v.001zm4.216-.118c.352-.731 1.873-.505 2.186.431s-.63 3.254-.783 5.141.158 5.009.003 5.633-1.874.625-2.03.156.78-3.747 1.093-6.089-.937-4.296-.469-5.271h0z"/><path d="M632.745 69.278c.25-.805 2.09-.221 2.178.88s-1.588 2.873-2.202 5.181-.264 4.208-.77 4.802-1.982.35-2.057-.283 1.647-3.522 2.184-5.667.418-4.106.668-4.913h-.001zm4.714 1.429c.385-.583 2.267-.171 1.768 1.48s-2.154 1.948-3.174 3.81-1.434 4.647-2.019 5.164-1.848-.495-1.669-1.277 1.99-2.503 3.183-4.479 1.448-3.996 1.912-4.698h-.001zm-19.696 4.494c-.305-.899 1.109-1.922 2.109-1.612s1.15 2.185 2.224 3.907 2.715 2.338 3.086 3.021-.327 2.222-1.147 2.04-2.15-3.225-3.109-4.364-2.857-2.093-3.163-2.992h0z"/><path d="M615.132 69.779c.127-.786 1.321-1.008 1.956-.321s.174.763.659 1.791 1.743.98 1.691 1.622-1.297 1.67-2.202 1.011-.21-1.248-.901-2.559-1.28-1.056-1.203-1.543z"/><path d="M613.707 64.948c.283-.204 1.639 1.313 1.895 1.904s.897.644.869 1.44-1.119 1.198-1.472.828-.375-1.474-.63-2.065-1.228-1.697-.662-2.106h0zm11.644 17.989c-.227-.909.212-2.324 1.433-2.255s2.939.538 3.72.381 2.811-.313 3.123 1.405-2.03 1.562-2.343 1.874.625.625 0 1.249c-.349.35-1.22-.161-1.781-.471s-1.064.232-1.672-.117-.919-.661-.607-1.129h0c.11-.165.033-.522-.162-.488-.233.041-.462.109-.619.175-.43.183-.936 0-1.093-.624h.001z"/></g></g><mask id="C" class="B"><path d="M632.339 68a2 2 0 0 1 2-2h13.223a2 2 0 0 1 2 2v9.066a2 2 0 0 1-2 2h-13.223a2 2 0 0 1-2-2V68z"/></mask><path d="M632.339 68a2 2 0 0 1 2-2h13.223a2 2 0 0 1 2 2v9.066a2 2 0 0 1-2 2h-13.223a2 2 0 0 1-2-2V68z" fill="#f2c94c" fill-opacity=".7"/><path d="M634.339 67h13.223v-2h-13.223v2zm14.223 1v9.066h2V68h-2zm-1 10.066h-13.223v2h13.223v-2zm-14.223-1V68h-2v9.066h2zm1 1a1 1 0 0 1-1-1h-2a3 3 0 0 0 3 3v-2zm14.223-1a1 1 0 0 1-1 1v2a3 3 0 0 0 3-3h-2zm-1-10.066a1 1 0 0 1 1 1h2a3 3 0 0 0-3-3v2zm-13.223-2a3 3 0 0 0-3 3h2a1 1 0 0 1 1-1v-2z" fill="#000" mask="url(#C)"/><path d="M385.714 33.877l44.911 25.929A29.75 29.75 0 0 1 445.5 85.571v51.859a29.75 29.75 0 0 1-14.875 25.765l-44.911 25.929c-9.205 5.315-20.545 5.315-29.75 0l-44.911-25.929a29.75 29.75 0 0 1-14.875-25.765V85.571a29.75 29.75 0 0 1 14.875-25.764l44.911-25.929a29.75 29.75 0 0 1 29.75 0z" class="B E K"/><g class="C"><path d="M338.548 143.282c-.429 0-.812-.11-1.151-.33s-.606-.54-.803-.959-.294-.928-.294-1.527c0-.606.099-1.118.298-1.534s.472-.735.813-.948.721-.324 1.14-.324c.32 0 .582.055.788.164s.37.235.49.387.215.29.281.422h.053v-2.72h1.289v7.273h-1.264v-.859h-.078c-.066.132-.162.273-.288.422s-.291.272-.497.377-.465.156-.777.156zm.358-1.055a1.11 1.11 0 0 0 .696-.22 1.37 1.37 0 0 0 .437-.621c.099-.266.149-.574.149-.927s-.05-.66-.149-.92-.241-.463-.433-.607-.423-.217-.7-.217c-.286 0-.525.075-.717.224a1.35 1.35 0 0 0-.433.618c-.097.263-.146.563-.146.902a2.66 2.66 0 0 0 .146.912c.099.266.245.475.436.629s.432.227.714.227zm6.331 1.066c-.547 0-1.019-.114-1.417-.341a2.32 2.32 0 0 1-.913-.973c-.213-.422-.319-.918-.319-1.488 0-.561.106-1.054.319-1.478s.517-.757.902-.994.84-.359 1.361-.359c.336 0 .653.055.951.164s.566.272.796.497.414.511.547.859.198.758.198 1.236v.394h-4.47v-.866h3.238a1.37 1.37 0 0 0-.16-.657 1.16 1.16 0 0 0-.436-.458c-.185-.111-.401-.167-.647-.167a1.25 1.25 0 0 0-.692.192c-.199.125-.354.291-.465.497s-.165.427-.167.671v.756c0 .318.058.59.174.817s.278.398.486.519.452.177.732.177a1.56 1.56 0 0 0 .508-.078c.151-.054.282-.134.394-.238s.195-.233.252-.387l1.2.135c-.076.317-.22.594-.433.831s-.481.417-.81.547-.705.192-1.129.192zm5.928 0c-.547 0-1.019-.114-1.417-.341s-.7-.554-.913-.973-.319-.918-.319-1.488c0-.561.106-1.054.319-1.478a2.42 2.42 0 0 1 .902-.994c.386-.239.839-.359 1.36-.359.336 0 .654.055.952.164s.566.272.795.497.415.511.547.859.199.758.199 1.236v.394h-4.471v-.866h3.239c-.002-.246-.056-.465-.16-.657a1.16 1.16 0 0 0-.437-.458c-.184-.111-.4-.167-.646-.167-.263 0-.494.064-.692.192s-.354.291-.466.497-.164.427-.167.671v.756c0 .318.058.59.174.817s.279.398.487.519.452.177.731.177c.188 0 .357-.026.508-.078s.283-.134.394-.238.196-.233.253-.387l1.2.135c-.076.317-.22.594-.433.831s-.481.417-.81.547a3.1 3.1 0 0 1-1.129.192zm3.513 1.938v-7.5h1.264v.902h.074a2.41 2.41 0 0 1 .281-.422c.121-.152.284-.281.49-.387s.469-.164.788-.164c.422 0 .802.108 1.14.324s.611.529.81.948.302.928.302 1.534c0 .599-.098 1.108-.295 1.527s-.464.738-.802.959-.723.33-1.151.33c-.313 0-.572-.052-.778-.156s-.371-.23-.497-.377a2.48 2.48 0 0 1-.288-.422h-.053v2.904h-1.285zm1.26-4.772c0 .353.05.661.149.927s.248.472.437.621a1.11 1.11 0 0 0 .696.22c.284 0 .522-.076.714-.227s.336-.363.433-.629.149-.571.149-.912-.048-.639-.145-.902-.242-.469-.433-.618-.431-.224-.718-.224c-.274 0-.508.072-.699.217s-.338.347-.437.607-.146.567-.146.92zm7.369 2.834c-.545 0-1.012-.12-1.403-.359s-.687-.569-.898-.991-.313-.911-.313-1.463.107-1.043.32-1.467.514-.757.902-.994.852-.359 1.385-.359c.443 0 .834.082 1.175.245a2.01 2.01 0 0 1 .821.686c.203.293.319.637.348 1.03h-1.229c-.05-.263-.168-.482-.355-.657s-.432-.267-.742-.267c-.263 0-.494.071-.693.213s-.354.341-.465.604-.163.578-.163.945.054.691.163.959a1.4 1.4 0 0 0 .458.614c.199.142.432.213.7.213.189 0 .358-.036.507-.107a1 1 0 0 0 .38-.316 1.21 1.21 0 0 0 .21-.5h1.229c-.031.386-.145.728-.341 1.026a2.02 2.02 0 0 1-.803.696c-.338.166-.736.249-1.193.249zm9.66-3.743c0 .757-.135 1.417-.405 1.978s-.641.992-1.115 1.299-1.013.458-1.626.458-1.157-.152-1.63-.458-.842-.741-1.112-1.299-.401-1.221-.401-1.978.134-1.416.401-1.975.642-.994 1.115-1.299 1.016-.462 1.627-.462 1.155.154 1.626.462.845.738 1.115 1.299.405 1.217.405 1.975zm-.646 0c0-.651-.109-1.209-.327-1.673s-.515-.823-.891-1.069-.804-.369-1.282-.369-.902.123-1.279.369-.675.602-.895 1.066-.326 1.022-.326 1.676.109 1.208.326 1.672.515.821.892 1.069.803.369 1.282.369.905-.123 1.282-.369.677-.601.894-1.065.326-1.025.324-1.676zm6.201-1.819a1.32 1.32 0 0 0-.536-.965c-.318-.24-.717-.359-1.197-.359-.339 0-.637.058-.895.174s-.457.277-.604.483-.216.435-.216.696a.99.99 0 0 0 .124.504 1.21 1.21 0 0 0 .334.373c.142.102.298.189.468.263a4.34 4.34 0 0 0 .523.184l.767.221a5.35 5.35 0 0 1 .696.245 2.8 2.8 0 0 1 .635.376c.194.149.349.333.465.551s.178.474.178.777c0 .388-.101.738-.302 1.048s-.49.556-.866.738-.828.27-1.353.27c-.495 0-.925-.081-1.289-.245s-.651-.394-.86-.685a1.93 1.93 0 0 1-.351-1.012h.681c.024.286.119.529.285.728a1.56 1.56 0 0 0 .646.454c.265.102.561.153.888.153a2.43 2.43 0 0 0 .966-.181 1.6 1.6 0 0 0 .667-.511 1.25 1.25 0 0 0 .245-.767c0-.247-.064-.453-.192-.618a1.48 1.48 0 0 0-.536-.423c-.227-.114-.491-.214-.792-.302l-.87-.255c-.57-.171-1.013-.406-1.328-.707a1.52 1.52 0 0 1-.472-1.151c0-.39.104-.734.312-1.03s.495-.53.853-.696.763-.252 1.211-.252.852.083 1.2.249a2.07 2.07 0 0 1 .827.685c.206.289.316.618.331.987h-.643zm9.776.505a1.87 1.87 0 0 0-.245-.515c-.102-.154-.225-.285-.369-.394s-.306-.191-.49-.245a2.04 2.04 0 0 0-.604-.086 1.89 1.89 0 0 0-1.044.295 1.98 1.98 0 0 0-.721.867c-.173.378-.259.84-.259 1.385s.086 1.014.259 1.395.413.671.721.87.665.295 1.072.295c.37 0 .689-.071.959-.213s.482-.343.629-.604.22-.57.22-.923l.298.046h-1.974v-1.03h2.951v.874c0 .622-.133 1.161-.398 1.616s-.63.804-1.094 1.051-.996.365-1.598.365c-.67 0-1.258-.15-1.765-.451s-.898-.732-1.182-1.289-.423-1.221-.423-1.988c0-.587.083-1.112.249-1.573s.402-.854.703-1.176.653-.57 1.058-.738a3.36 3.36 0 0 1 1.321-.256c.403 0 .778.059 1.126.177s.657.282.927.498.496.471.671.767.29.622.344.98h-1.342zm4.19 5.06a2.26 2.26 0 0 1-.934-.185 1.52 1.52 0 0 1-.654-.554c-.158-.243-.238-.544-.238-.902 0-.307.057-.562.171-.763s.268-.362.465-.483a2.32 2.32 0 0 1 .664-.273 5.47 5.47 0 0 1 .771-.139l.777-.089c.199-.028.344-.071.433-.128a.3.3 0 0 0 .139-.273v-.021c0-.268-.079-.475-.238-.622s-.387-.22-.685-.22c-.315 0-.565.069-.75.206s-.305.3-.369.487l-1.2-.171c.094-.331.251-.608.469-.831s.484-.393.799-.504a3.04 3.04 0 0 1 1.044-.171c.262 0 .524.031.784.093a2.19 2.19 0 0 1 .714.305c.216.14.388.33.519.572s.198.543.198.905v3.651h-1.235v-.749h-.043a1.58 1.58 0 0 1-.33.426c-.14.13-.316.235-.529.316s-.458.117-.742.117zm.333-.944c.258 0 .482-.051.671-.153a1.13 1.13 0 0 0 .437-.412 1.05 1.05 0 0 0 .157-.558v-.642c-.041.033-.109.064-.206.092a3.24 3.24 0 0 1-.32.075l-.352.056-.301.043c-.192.026-.364.069-.515.128s-.271.142-.359.248-.131.239-.131.405c0 .237.086.416.259.536s.393.182.66.182zm6.563-4.621v.995h-3.136v-.995h3.136zm-2.362-1.306h1.286v5.12c0 .173.026.306.078.398s.125.152.213.185.185.05.291.05a1.23 1.23 0 0 0 .22-.018l.157-.032.216 1.005a3.24 3.24 0 0 1-.294.078 2.48 2.48 0 0 1-.462.05c-.322.009-.612-.039-.87-.146a1.36 1.36 0 0 1-.615-.504c-.149-.228-.222-.512-.22-.853v-5.333zm5.793 6.868c-.547 0-1.019-.114-1.417-.341a2.31 2.31 0 0 1-.912-.973c-.213-.422-.32-.918-.32-1.488 0-.561.107-1.054.32-1.478s.516-.757.902-.994.839-.359 1.36-.359c.336 0 .653.055.951.164s.566.272.796.497.414.511.547.859.199.758.199 1.236v.394h-4.471v-.866h3.238a1.37 1.37 0 0 0-.16-.657 1.16 1.16 0 0 0-.436-.458c-.185-.111-.4-.167-.647-.167-.262 0-.493.064-.692.192s-.354.291-.465.497-.165.427-.167.671v.756c0 .318.058.59.174.817s.278.398.486.519.453.177.732.177a1.56 1.56 0 0 0 .508-.078c.151-.054.283-.134.394-.238s.195-.233.252-.387l1.2.135c-.075.317-.22.594-.433.831s-.481.417-.81.547-.705.192-1.129.192z"/><path d="M169.863 219.583h-.997c-.038-.213-.11-.4-.214-.562s-.232-.3-.384-.413a1.63 1.63 0 0 0-.508-.255c-.185-.058-.382-.087-.591-.087-.377 0-.715.095-1.013.285s-.531.467-.703.834-.256.814-.256 1.342.085.983.256 1.349.408.643.706.831.634.281 1.007.281a2.03 2.03 0 0 0 .588-.083 1.7 1.7 0 0 0 .508-.252c.151-.111.279-.246.383-.406s.18-.348.221-.556l.997.003c-.053.322-.157.618-.31.888s-.346.501-.585.697-.507.344-.812.451-.637.159-.997.159c-.567 0-1.072-.134-1.515-.402s-.792-.658-1.048-1.16-.38-1.103-.38-1.8.128-1.298.383-1.799a2.79 2.79 0 0 1 1.049-1.157c.443-.271.947-.406 1.511-.406a3.06 3.06 0 0 1 .972.15 2.57 2.57 0 0 1 .815.435 2.38 2.38 0 0 1 .597.697c.158.272.265.585.32.936zm2.061-2.128V224h-.956v-6.545h.956zm1.285 6.545v-4.909h.956V224h-.956zm.483-5.667c-.166 0-.309-.055-.428-.166s-.176-.247-.176-.402a.53.53 0 0 1 .176-.403.6.6 0 0 1 .428-.17.59.59 0 0 1 .425.17.53.53 0 0 1 .179.403c0 .155-.06.289-.179.402s-.259.166-.425.166zm2.714 2.752V224h-.955v-4.909h.917v.799h.06c.113-.26.29-.469.531-.627s.549-.236.917-.236c.335 0 .628.07.879.211a1.4 1.4 0 0 1 .585.62c.139.275.208.615.208 1.019V224h-.956v-3.007c0-.356-.092-.634-.278-.835s-.44-.303-.764-.303c-.221 0-.418.048-.591.144a1.03 1.03 0 0 0-.406.421c-.098.184-.147.405-.147.665zm4.423 2.915v-4.909h.956V224h-.956zm.483-5.667c-.166 0-.309-.055-.428-.166a.54.54 0 0 1-.176-.402c0-.158.059-.292.176-.403a.6.6 0 0 1 .428-.17.59.59 0 0 1 .425.17.53.53 0 0 1 .179.403c0 .155-.06.289-.179.402s-.259.166-.425.166zm3.826 5.766c-.475 0-.884-.108-1.227-.323s-.603-.516-.786-.898-.275-.818-.275-1.31c0-.499.094-.939.281-1.32s.452-.683.793-.898.743-.323 1.205-.323c.373 0 .705.069.997.208s.527.328.706.575.289.536.323.866h-.93c-.051-.23-.168-.428-.351-.594s-.424-.25-.729-.25c-.266 0-.5.071-.7.211s-.353.337-.464.595-.166.558-.166.907c0 .358.055.667.163.927a1.37 1.37 0 0 0 .461.604 1.18 1.18 0 0 0 .706.214c.181 0 .345-.033.492-.099a1.01 1.01 0 0 0 .374-.29c.102-.126.174-.277.214-.454h.93a1.8 1.8 0 0 1-.31.85c-.172.249-.404.445-.693.588s-.626.214-1.014.214zm4.468.01c-.311 0-.593-.058-.844-.173a1.42 1.42 0 0 1-.598-.508c-.145-.222-.217-.493-.217-.815 0-.277.053-.505.16-.684a1.17 1.17 0 0 1 .431-.425 2.3 2.3 0 0 1 .607-.237 6.19 6.19 0 0 1 .684-.121l.716-.083c.184-.024.317-.061.4-.112s.124-.134.124-.249v-.023c0-.279-.078-.495-.236-.648s-.388-.231-.697-.231c-.322 0-.575.072-.76.215s-.31.297-.381.469l-.898-.204c.107-.298.262-.539.467-.722s.444-.32.713-.403a2.78 2.78 0 0 1 .846-.128 2.99 2.99 0 0 1 .624.07c.221.045.428.128.62.25s.352.295.476.521.185.514.185.872V224h-.933v-.671h-.038a1.38 1.38 0 0 1-.278.364c-.124.119-.283.219-.477.297s-.426.119-.696.119zm.207-.767c.265 0 .49-.053.678-.157s.333-.241.431-.409.151-.353.151-.547v-.632c-.034.034-.1.066-.198.095s-.206.053-.33.074l-.361.054-.294.039c-.185.023-.355.063-.508.118a.86.86 0 0 0-.364.24c-.09.102-.135.238-.135.409 0 .236.088.415.262.537s.398.179.668.179zm4.444-5.887V224h-.956v-6.545h.956zm4.731 0V224h-.987v-6.545h.987zm2.318 3.63V224h-.956v-4.909h.917v.799h.061a1.41 1.41 0 0 1 .53-.627c.243-.157.549-.236.918-.236a1.77 1.77 0 0 1 .879.211c.251.138.446.345.584.62s.208.615.208 1.019V224h-.955v-3.007c0-.356-.093-.634-.278-.835s-.44-.303-.764-.303a1.2 1.2 0 0 0-.592.144 1.03 1.03 0 0 0-.405.421c-.098.184-.147.405-.147.665zm6.714-1.994v.767h-2.681v-.767h2.681zm-1.962-1.176h.956v4.644c0 .185.027.325.083.418s.126.155.214.189.186.048.291.048a1.18 1.18 0 0 0 .201-.016l.134-.026.173.79c-.056.021-.134.042-.237.064s-.23.036-.383.038c-.252.004-.486-.041-.703-.134a1.21 1.21 0 0 1-.528-.435c-.134-.196-.201-.442-.201-.738v-4.842zm5.082 6.184c-.483 0-.9-.103-1.249-.31a2.11 2.11 0 0 1-.806-.879c-.187-.379-.281-.823-.281-1.333 0-.502.094-.946.281-1.329a2.18 2.18 0 0 1 .793-.898c.341-.215.739-.323 1.195-.323.277 0 .546.046.806.137a1.96 1.96 0 0 1 .7.432c.206.196.369.451.489.764s.179.689.179 1.134v.339h-3.903v-.716h2.966c0-.251-.051-.474-.153-.668s-.246-.35-.432-.463-.398-.17-.645-.17c-.269 0-.503.066-.703.199s-.352.3-.461.511-.159.436-.159.681v.559c0 .328.057.607.172.837a1.25 1.25 0 0 0 .489.528c.209.119.453.179.732.179a1.52 1.52 0 0 0 .495-.077 1.05 1.05 0 0 0 .387-.237c.109-.104.192-.233.249-.386l.905.163c-.072.266-.202.499-.39.7s-.419.352-.7.463-.598.163-.956.163zm5.225 1.844c-.39 0-.725-.051-1.007-.153s-.507-.238-.684-.406-.308-.353-.396-.553l.822-.339a1.9 1.9 0 0 0 .23.297 1.18 1.18 0 0 0 .396.272c.168.075.385.112.649.112.362 0 .661-.088.898-.265s.355-.454.355-.838v-.965h-.061a2.18 2.18 0 0 1-.249.348 1.36 1.36 0 0 1-.441.333c-.188.094-.432.14-.732.14-.388 0-.738-.09-1.049-.271s-.554-.453-.735-.809-.268-.798-.268-1.32.088-.969.265-1.342.424-.658.735-.857.664-.3 1.058-.3c.305 0 .551.051.738.153s.334.218.438.352.189.252.246.355h.071v-.796h.936v5.018c0 .422-.098.768-.294 1.038s-.461.471-.796.601-.707.195-1.125.195zm-.009-2.809c.274 0 .507-.064.696-.192s.337-.315.435-.556a2.29 2.29 0 0 0 .15-.873c0-.33-.049-.621-.147-.872s-.242-.447-.431-.588-.424-.214-.703-.214c-.288 0-.528.074-.72.223s-.336.348-.434.601-.144.537-.144.85c0 .322.049.605.147.847a1.25 1.25 0 0 0 .435.569c.194.137.432.205.716.205zm3.506.866v-4.909h.923v.78h.051c.09-.264.248-.472.473-.623a1.35 1.35 0 0 1 .774-.231l.211.007.195.016v.914c-.039-.011-.107-.023-.205-.035a1.94 1.94 0 0 0-.294-.023c-.226 0-.427.048-.604.144s-.313.225-.415.393-.154.356-.154.569V224h-.955zm4.838.109a2 2 0 0 1-.843-.173c-.252-.117-.451-.286-.598-.508s-.217-.493-.217-.815c0-.277.053-.505.159-.684a1.18 1.18 0 0 1 .432-.425c.181-.104.383-.183.607-.237a6.19 6.19 0 0 1 .684-.121l.716-.083c.183-.024.316-.061.4-.112s.124-.134.124-.249v-.023c0-.279-.079-.495-.236-.648s-.388-.231-.697-.231c-.322 0-.575.072-.761.215s-.31.297-.38.469l-.898-.204c.106-.298.262-.539.467-.722a1.88 1.88 0 0 1 .712-.403c.269-.085.551-.128.847-.128.196 0 .404.023.623.07a1.81 1.81 0 0 1 .62.25 1.38 1.38 0 0 1 .477.521c.123.223.185.514.185.872V224h-.933v-.671h-.039c-.061.123-.154.245-.278.364a1.46 1.46 0 0 1-.476.297c-.194.079-.426.119-.697.119zm.208-.767c.264 0 .49-.053.678-.157a1.1 1.1 0 0 0 .431-.409c.1-.171.15-.353.15-.547v-.632c-.034.034-.1.066-.198.095s-.205.053-.329.074l-.361.054-.294.039a2.35 2.35 0 0 0-.508.118c-.152.055-.273.135-.365.24a.6.6 0 0 0-.134.409c0 .236.087.415.262.537s.398.179.668.179zm5.779-4.251v.767h-2.681v-.767h2.681zm-1.962-1.176h.956v4.644c0 .185.027.325.083.418s.126.155.214.189.186.048.291.048a1.18 1.18 0 0 0 .201-.016l.134-.026.173.79c-.056.021-.134.042-.237.064s-.23.036-.383.038c-.252.004-.486-.041-.703-.134a1.21 1.21 0 0 1-.528-.435c-.134-.196-.201-.442-.201-.738v-4.842zm3.019 6.085v-4.909h.956V224h-.956zm.483-5.667c-.166 0-.309-.055-.428-.166a.54.54 0 0 1-.176-.402c0-.158.059-.292.176-.403a.6.6 0 0 1 .428-.17.59.59 0 0 1 .425.17.53.53 0 0 1 .179.403c0 .155-.06.289-.179.402s-.259.166-.425.166zm3.826 5.766a2.25 2.25 0 0 1-1.204-.316c-.343-.211-.61-.506-.799-.886s-.285-.822-.285-1.329.095-.955.285-1.336.456-.678.799-.889a2.25 2.25 0 0 1 1.204-.316c.461 0 .862.105 1.205.316s.61.507.799.889.285.827.285 1.336-.095.95-.285 1.329-.456.675-.799.886-.744.316-1.205.316zm.004-.802c.298 0 .545-.079.741-.237s.341-.367.435-.629.144-.551.144-.866a2.49 2.49 0 0 0-.144-.863 1.4 1.4 0 0 0-.435-.636c-.196-.16-.443-.24-.741-.24s-.55.08-.748.24a1.42 1.42 0 0 0-.438.636c-.094.262-.141.549-.141.863a2.55 2.55 0 0 0 .141.866c.096.262.242.472.438.629s.447.237.748.237zm4.307-2.212V224h-.955v-4.909h.917v.799h.06c.113-.26.29-.469.531-.627s.549-.236.917-.236c.335 0 .628.07.879.211a1.4 1.4 0 0 1 .585.62c.139.275.208.615.208 1.019V224h-.956v-3.007c0-.356-.092-.634-.278-.835s-.44-.303-.764-.303c-.221 0-.418.048-.591.144a1.03 1.03 0 0 0-.406.421c-.098.184-.147.405-.147.665zm8.102-.796l-.866.154a1.03 1.03 0 0 0-.173-.317.85.85 0 0 0-.313-.246c-.132-.064-.297-.096-.495-.096-.271 0-.497.061-.678.183s-.271.273-.271.463c0 .164.06.296.182.396s.317.183.588.246l.78.179c.451.105.788.266 1.01.483s.332.5.332.847c0 .294-.085.556-.256.786s-.404.407-.706.537-.649.195-1.045.195c-.55 0-.998-.117-1.346-.351a1.49 1.49 0 0 1-.639-1.007l.924-.141c.057.241.176.423.354.547s.413.182.7.182c.314 0 .564-.065.751-.195s.282-.293.282-.483a.5.5 0 0 0-.173-.386c-.113-.105-.286-.184-.521-.237l-.831-.182c-.458-.105-.797-.271-1.016-.499s-.326-.516-.326-.866c0-.29.081-.543.243-.76s.385-.387.671-.509.613-.185.981-.185c.531 0 .948.115 1.253.345s.506.534.604.917z"/></g><rect x="570.534" y="155.195" width="35.315" height="16.369" rx="8.185" class="B"/><path d="M583.349 162.054a.93.93 0 0 0-.422-.703c-.247-.169-.558-.253-.933-.253-.269 0-.501.043-.697.128s-.349.198-.457.345-.16.31-.16.496c0 .155.036.289.109.402s.171.208.29.285.252.137.39.188l.4.122.639.166a4.73 4.73 0 0 1 .642.208c.22.087.423.202.611.345a1.67 1.67 0 0 1 .454.53c.117.211.176.464.176.758a1.74 1.74 0 0 1-.288.988c-.19.287-.466.514-.828.68s-.796.25-1.307.25c-.49 0-.914-.078-1.272-.234s-.638-.376-.841-.661a1.92 1.92 0 0 1-.335-1.023h.991c.019.236.095.434.23.591a1.24 1.24 0 0 0 .521.349 2.12 2.12 0 0 0 .7.111c.279 0 .527-.043.744-.131s.392-.213.518-.37a.88.88 0 0 0 .189-.56c0-.194-.056-.352-.167-.476s-.256-.226-.444-.307a4.33 4.33 0 0 0-.63-.214l-.773-.211c-.524-.143-.94-.352-1.246-.629s-.457-.644-.457-1.1c0-.377.102-.706.306-.987a2.02 2.02 0 0 1 .831-.656c.35-.157.744-.236 1.183-.236s.834.078 1.173.233.609.37.805.643.299.581.307.933h-.952zm4.341 4.826h-2.119v-6.546h2.186c.641 0 1.192.131 1.652.394s.813.633 1.058 1.121.371 1.069.371 1.749-.125 1.267-.374 1.757-.605.868-1.074 1.132-1.036.393-1.7.393zm-1.132-.863h1.077c.499 0 .913-.094 1.244-.281s.577-.464.741-.822.246-.799.246-1.316-.082-.95-.246-1.308-.404-.629-.725-.815-.722-.278-1.199-.278h-1.138v4.82zm5.508.863v-6.546h.987v3.126h.08l2.746-3.126h1.243l-2.64 2.947 2.649 3.599h-1.188l-2.116-2.924-.774.888v2.036h-.987z" class="C"/><rect x="570.534" y="155.195" width="35.315" height="16.369" rx="8.185" class="I J"/><rect x="282.186" y="117.924" width="30.214" height="16.369" rx="8.185" class="B"/><path d="M291.322 129.608h-1.048l2.355-6.545h1.141l2.356 6.545h-1.048l-1.851-5.356h-.051l-1.854 5.356zm.176-2.563h3.401v.831h-3.401v-.831zm5.573 2.563v-6.545h2.333c.509 0 .931.093 1.266.278s.585.439.751.761.249.679.249 1.08-.084.765-.252 1.087-.418.573-.755.76-.755.278-1.262.278h-1.604v-.837h1.515c.321 0 .582-.055.783-.166s.347-.267.441-.461.14-.414.14-.661-.047-.467-.14-.658a1.01 1.01 0 0 0-.445-.451c-.2-.109-.464-.163-.792-.163h-1.24v5.698h-.988zm6.745-6.545v6.545h-.988v-6.545h.988z" class="C"/><rect x="282.186" y="117.924" width="30.214" height="16.369" rx="8.185" class="I J"/><rect x="570.534" y="105.35" width="35.315" height="16.369" rx="8.185" class="B"/><path d="M583.349 112.209a.93.93 0 0 0-.422-.703c-.247-.169-.558-.253-.933-.253-.269 0-.501.043-.697.128s-.349.198-.457.345-.16.31-.16.496c0 .155.036.289.109.402s.171.208.29.285.252.137.39.188l.4.122.639.166a4.73 4.73 0 0 1 .642.208c.22.087.423.202.611.345s.339.32.454.531.176.463.176.757a1.74 1.74 0 0 1-.288.988c-.19.287-.466.514-.828.68s-.796.25-1.307.25c-.49 0-.914-.078-1.272-.234s-.638-.376-.841-.661a1.92 1.92 0 0 1-.335-1.023h.991c.019.236.095.434.23.591a1.24 1.24 0 0 0 .521.349 2.12 2.12 0 0 0 .7.111c.279 0 .527-.043.744-.131s.392-.213.518-.37a.88.88 0 0 0 .189-.56c0-.194-.056-.352-.167-.476s-.256-.226-.444-.307a4.33 4.33 0 0 0-.63-.214l-.773-.211c-.524-.142-.94-.352-1.246-.629s-.457-.644-.457-1.1c0-.377.102-.706.306-.987a2.02 2.02 0 0 1 .831-.656c.35-.157.744-.236 1.183-.236s.834.078 1.173.233.609.37.805.643.299.581.307.933h-.952zm4.341 4.826h-2.119v-6.546h2.186c.641 0 1.192.131 1.652.394a2.59 2.59 0 0 1 1.058 1.121c.247.486.371 1.069.371 1.749s-.125 1.267-.374 1.757-.605.868-1.074 1.132-1.036.393-1.7.393zm-1.132-.863h1.077c.499 0 .913-.094 1.244-.281s.577-.464.741-.822.246-.799.246-1.316-.082-.95-.246-1.308-.404-.629-.725-.815-.722-.278-1.199-.278h-1.138v4.82zm5.508.863v-6.546h.987v3.126h.08l2.746-3.126h1.243l-2.64 2.947 2.649 3.599h-1.188l-2.116-2.924-.774.888v2.036h-.987z" class="C"/><rect x="570.534" y="105.35" width="35.315" height="16.369" rx="8.185" class="I J"/><rect x="570.534" y="55.195" width="35.315" height="16.369" rx="8.185" class="B"/><path d="M583.349 62.054c-.034-.303-.175-.537-.422-.703s-.558-.252-.933-.252c-.269 0-.501.043-.697.128s-.349.198-.457.345a.81.81 0 0 0-.16.495c0 .156.036.29.109.403a.97.97 0 0 0 .29.284c.122.075.252.137.39.189l.4.121.639.166c.209.051.423.12.642.208a2.58 2.58 0 0 1 .611.345 1.66 1.66 0 0 1 .454.531c.117.211.176.463.176.757 0 .371-.096.7-.288.988s-.466.515-.828.681-.796.249-1.307.249c-.49 0-.914-.078-1.272-.233s-.638-.376-.841-.662-.314-.629-.335-1.023h.991c.019.237.095.434.23.591a1.24 1.24 0 0 0 .521.348c.213.075.446.112.7.112a1.98 1.98 0 0 0 .744-.131c.22-.09.392-.213.518-.371s.189-.346.189-.559c0-.194-.056-.353-.167-.476s-.256-.226-.444-.307-.395-.152-.63-.214l-.773-.211c-.524-.143-.94-.353-1.246-.63s-.457-.643-.457-1.099c0-.377.102-.706.306-.988s.482-.5.831-.655a2.85 2.85 0 0 1 1.183-.236c.443 0 .834.078 1.173.233s.609.37.805.642.299.582.307.933h-.952zm4.341 4.826h-2.119v-6.546h2.186c.641 0 1.192.131 1.652.393s.813.634 1.058 1.122.371 1.069.371 1.748-.125 1.268-.374 1.758a2.62 2.62 0 0 1-1.074 1.131c-.469.262-1.036.393-1.7.393zm-1.132-.863h1.077c.499 0 .913-.094 1.244-.281a1.77 1.77 0 0 0 .741-.821c.164-.36.246-.799.246-1.317s-.082-.949-.246-1.307a1.74 1.74 0 0 0-.725-.815c-.322-.185-.722-.278-1.199-.278h-1.138v4.82zm5.508.863v-6.546h.987v3.126h.08l2.746-3.126h1.243l-2.64 2.947 2.649 3.599h-1.188l-2.116-2.924-.774.888v2.036h-.987z" class="C"/><rect x="570.534" y="55.195" width="35.315" height="16.369" rx="8.185" class="I J"/><path d="M205.839 214a.5.5 0 1 0 1 0h-1zm.5-66.333a2.67 2.67 0 0 0 2.667-2.667 2.67 2.67 0 0 0-2.667-2.667 2.67 2.67 0 0 0-2.667 2.667 2.67 2.67 0 0 0 2.667 2.667zm.5 66.333v-69h-1v69h1z" fill="#3a3a3a"/><rect x="15.839" y="128.5" width="118" height="81" rx="2.742" class="D E"/><path d="M16.339 131a2 2 0 0 1 2-2h113a2 2 0 0 1 2 2v7h-117v-7z" fill="#cdcdcd"/><g class="B"><circle cx="23.5" cy="133.301" r="2.5"/><circle cx="30.5" cy="133.301" r="2.5"/><circle cx="37.5" cy="133.301" r="2.5"/></g><path d="M44.474 186v-6.545h.988v2.844h3.263v-2.844h.991V186h-.991v-2.854h-3.263V186h-.988zm7.667-6.545V186h-.987v-6.545h.987zm1.116.85v-.85h5.066v.85H56.28V186h-.984v-5.695h-2.039zm12.137.869a.93.93 0 0 0-.422-.703c-.247-.168-.558-.253-.933-.253-.268 0-.501.043-.697.128a1.07 1.07 0 0 0-.457.345c-.107.145-.16.31-.16.496 0 .155.036.29.109.402a.98.98 0 0 0 .291.285c.121.075.251.137.39.188l.4.122.639.166c.209.051.423.121.642.208s.423.202.61.345a1.66 1.66 0 0 1 .454.531c.117.211.176.463.176.757a1.74 1.74 0 0 1-.288.988c-.19.287-.466.514-.828.68s-.796.25-1.307.25c-.49 0-.914-.078-1.272-.234s-.638-.376-.841-.661a1.92 1.92 0 0 1-.336-1.023h.991c.019.237.096.434.23.591s.31.272.521.349a2.12 2.12 0 0 0 .7.112c.279 0 .527-.044.745-.131s.392-.214.518-.371a.88.88 0 0 0 .189-.56c0-.193-.055-.352-.166-.476s-.257-.226-.444-.307a4.36 4.36 0 0 0-.63-.214l-.773-.211c-.524-.142-.94-.352-1.247-.629s-.457-.644-.457-1.1c0-.377.102-.706.307-.987s.482-.5.831-.655a2.84 2.84 0 0 1 1.182-.237c.443 0 .834.078 1.173.233a1.98 1.98 0 0 1 .805.643c.196.27.298.581.307.933h-.952zm2.749 6.667a2.03 2.03 0 0 1-.39-.035c-.117-.022-.204-.045-.262-.071l.23-.783a1.52 1.52 0 0 0 .467.061c.136-.006.257-.057.361-.153s.2-.253.281-.47l.118-.326-1.796-4.973h1.023l1.243 3.81h.051l1.243-3.81h1.026l-2.023 5.564a2.22 2.22 0 0 1-.358.649c-.145.179-.317.313-.518.403s-.433.134-.697.134zm8.172-5.552l-.866.154c-.036-.111-.094-.216-.172-.317s-.181-.182-.313-.246-.297-.096-.495-.096c-.271 0-.496.061-.678.183s-.272.273-.272.463c0 .164.061.296.182.396s.317.183.588.246l.78.179c.452.105.788.266 1.01.483s.332.5.332.847c0 .294-.085.556-.256.786s-.404.407-.706.537-.649.195-1.045.195c-.55 0-.998-.117-1.345-.351s-.56-.573-.639-1.007l.924-.141c.058.241.176.423.355.547s.412.182.7.182c.313 0 .564-.065.751-.195s.281-.293.281-.483a.5.5 0 0 0-.173-.386c-.113-.105-.287-.184-.521-.237l-.831-.182c-.458-.105-.797-.271-1.016-.499s-.326-.516-.326-.866c0-.29.081-.543.243-.76s.386-.387.671-.509a2.46 2.46 0 0 1 .981-.185c.531 0 .948.115 1.253.345s.506.534.604.917zm3.438-1.198v.767h-2.681v-.767h2.682zm-1.962-1.176h.956v4.644c0 .185.028.325.083.418s.127.155.214.189.186.048.291.048a1.18 1.18 0 0 0 .201-.016l.134-.026.173.79c-.055.021-.134.042-.236.064s-.23.036-.384.038a1.7 1.7 0 0 1-.703-.134 1.21 1.21 0 0 1-.527-.435c-.134-.196-.201-.442-.201-.738v-4.842zm5.083 6.184c-.484 0-.9-.103-1.25-.31s-.616-.502-.805-.879-.281-.823-.281-1.333c0-.502.094-.946.281-1.329a2.18 2.18 0 0 1 .793-.898c.341-.215.739-.323 1.195-.323a2.42 2.42 0 0 1 .805.137 1.96 1.96 0 0 1 .7.432c.207.196.37.451.489.764s.179.689.179 1.134v.339h-3.902v-.716h2.966c0-.251-.051-.474-.153-.668a1.16 1.16 0 0 0-.431-.463c-.183-.113-.398-.17-.646-.17a1.24 1.24 0 0 0-.703.199 1.33 1.33 0 0 0-.46.511 1.48 1.48 0 0 0-.16.681v.559c0 .328.058.607.173.837s.28.406.489.528.453.179.732.179c.181 0 .346-.026.495-.077a1.06 1.06 0 0 0 .387-.237c.109-.104.192-.233.249-.386l.904.163c-.072.266-.203.499-.39.7s-.419.352-.7.463-.598.163-.956.163zM86.04 186v-4.909h.917v.799h.061c.102-.271.27-.482.502-.633s.51-.23.834-.23.603.077.825.23a1.35 1.35 0 0 1 .495.633h.051c.117-.262.304-.471.559-.627s.56-.236.914-.236c.445 0 .809.14 1.09.419s.425.7.425 1.262V186h-.956v-3.202c0-.333-.09-.574-.272-.723s-.397-.223-.649-.223c-.311 0-.553.095-.726.287s-.259.434-.259.732V186H88.9v-3.263c0-.266-.083-.481-.249-.643s-.382-.242-.649-.242c-.181 0-.348.048-.502.143a1.06 1.06 0 0 0-.367.393c-.092.169-.137.364-.137.585V186h-.956zm11.633-3.711l-.866.154a1.04 1.04 0 0 0-.173-.317c-.077-.1-.181-.182-.313-.246s-.297-.096-.495-.096c-.271 0-.496.061-.678.183s-.272.273-.272.463c0 .164.061.296.182.396s.317.183.588.246l.78.179c.452.105.788.266 1.01.483s.332.5.332.847c0 .294-.085.556-.256.786s-.404.407-.706.537-.649.195-1.045.195c-.55 0-.998-.117-1.346-.351s-.56-.573-.639-1.007l.924-.141c.058.241.176.423.355.547s.412.182.7.182c.313 0 .564-.065.751-.195s.281-.293.281-.483a.5.5 0 0 0-.173-.386c-.113-.105-.287-.184-.521-.237l-.831-.182c-.458-.105-.797-.271-1.016-.499s-.326-.516-.326-.866c0-.29.081-.543.243-.76a1.59 1.59 0 0 1 .671-.509 2.46 2.46 0 0 1 .981-.185c.53 0 .948.115 1.253.345s.506.534.604.917zm6.021-3.141l-2.109 7.836h-.854l2.11-7.836h.853zm-73.859 18.948c-.396 0-.75-.101-1.061-.304s-.552-.495-.729-.872-.262-.834-.262-1.365.088-.984.265-1.361.424-.666.735-.867.664-.3 1.058-.3c.305 0 .55.051.735.153s.332.218.435.352a2.89 2.89 0 0 1 .243.355h.058v-2.432h.956V198h-.933v-.764h-.08c-.057.105-.141.224-.249.358s-.254.252-.441.352-.43.15-.729.15zm.211-.815c.275 0 .507-.073.697-.217s.337-.351.435-.611.15-.562.15-.908c0-.34-.049-.639-.147-.894s-.242-.455-.431-.598-.424-.214-.703-.214c-.288 0-.527.074-.719.223s-.337.353-.435.611a2.49 2.49 0 0 0-.144.872c0 .329.049.624.147.886s.243.47.435.623a1.13 1.13 0 0 0 .716.227zm5.701.818c-.484 0-.9-.103-1.25-.31s-.616-.502-.805-.879-.281-.823-.281-1.333c0-.502.094-.946.281-1.329a2.18 2.18 0 0 1 .793-.898c.341-.215.739-.323 1.195-.323a2.42 2.42 0 0 1 .805.137c.26.092.493.236.7.432s.37.451.489.764.179.689.179 1.134v.339H33.95v-.716h2.966c0-.251-.051-.474-.153-.668a1.16 1.16 0 0 0-.431-.463c-.183-.113-.398-.17-.646-.17a1.24 1.24 0 0 0-.703.199 1.33 1.33 0 0 0-.46.511c-.107.209-.16.436-.16.681v.559c0 .328.057.607.173.837s.28.406.489.528.453.179.732.179c.181 0 .346-.026.495-.077a1.06 1.06 0 0 0 .387-.237c.109-.104.192-.233.249-.386l.904.163c-.072.266-.202.499-.39.7s-.419.352-.7.463-.598.163-.956.163zm5.282 0c-.484 0-.9-.103-1.25-.31s-.616-.502-.805-.879-.281-.823-.281-1.333c0-.502.094-.946.281-1.329a2.18 2.18 0 0 1 .793-.898c.341-.215.739-.323 1.195-.323a2.42 2.42 0 0 1 .805.137 1.96 1.96 0 0 1 .7.432c.207.196.37.451.489.764s.179.689.179 1.134v.339h-3.902v-.716h2.966c0-.251-.051-.474-.153-.668a1.16 1.16 0 0 0-.431-.463c-.183-.113-.398-.17-.645-.17a1.24 1.24 0 0 0-.703.199 1.33 1.33 0 0 0-.46.511 1.48 1.48 0 0 0-.16.681v.559c0 .328.058.607.173.837s.28.406.489.528.453.179.732.179c.181 0 .346-.026.495-.077a1.06 1.06 0 0 0 .387-.237c.109-.104.192-.233.249-.386l.904.163c-.072.266-.202.499-.39.7s-.419.352-.7.463-.598.163-.956.163zm3.166 1.742v-6.75h.933v.796h.08a2.61 2.61 0 0 1 .24-.355c.104-.134.249-.251.435-.352s.43-.153.735-.153a1.92 1.92 0 0 1 1.061.3c.311.201.555.489.732.867s.269.831.269 1.361-.089.985-.265 1.365-.42.668-.729.872-.662.304-1.058.304c-.298 0-.542-.05-.732-.15s-.335-.218-.441-.352a2.6 2.6 0 0 1-.246-.358h-.058v2.605h-.956zm.937-4.296c0 .346.05.648.15.908s.245.464.435.611.422.217.697.217c.285 0 .524-.076.716-.227s.337-.361.435-.623.15-.557.15-.886a2.44 2.44 0 0 0-.147-.872 1.34 1.34 0 0 0-.435-.611c-.192-.149-.431-.223-.719-.223-.277 0-.511.071-.703.214s-.333.342-.431.598-.147.554-.147.894zm6.686 2.554c-.475 0-.884-.108-1.227-.323a2.13 2.13 0 0 1-.786-.898c-.183-.381-.275-.818-.275-1.31 0-.499.094-.939.281-1.32a2.15 2.15 0 0 1 .793-.898c.341-.215.742-.323 1.205-.323.373 0 .705.069.997.208s.527.328.706.575.289.536.323.866h-.93c-.051-.23-.168-.428-.352-.594s-.424-.25-.729-.25a1.19 1.19 0 0 0-.7.211 1.36 1.36 0 0 0-.463.595c-.111.255-.166.558-.166.907 0 .358.054.667.163.927s.262.462.46.604.436.214.706.214a1.19 1.19 0 0 0 .492-.099 1.01 1.01 0 0 0 .374-.29c.102-.126.174-.277.214-.454h.93c-.034.317-.137.601-.31.85s-.404.445-.693.588-.625.214-1.013.214zm8.801-3.372c0 .699-.128 1.3-.383 1.803s-.606.886-1.051 1.157-.947.402-1.512.402-1.073-.134-1.518-.402-.793-.658-1.048-1.16-.384-1.103-.384-1.8.128-1.298.384-1.799.605-.889 1.048-1.157.951-.406 1.518-.406 1.069.135 1.512.406.796.654 1.051 1.157.383 1.1.383 1.799zm-.978 0c0-.532-.086-.981-.259-1.345s-.405-.644-.703-.831-.632-.285-1.007-.285a1.83 1.83 0 0 0-1.01.285c-.296.187-.53.464-.703.831s-.256.813-.256 1.345.085.983.256 1.349.407.641.703.831.633.281 1.01.281.711-.094 1.007-.281.533-.467.703-.831.259-.816.259-1.349zm5.779-1.553a.93.93 0 0 0-.422-.703c-.247-.168-.558-.253-.933-.253-.269 0-.501.043-.697.128s-.348.198-.457.345-.16.31-.16.496c0 .155.036.29.109.402a.98.98 0 0 0 .291.285 2.16 2.16 0 0 0 .39.188l.399.122.639.166c.209.051.423.121.642.208s.423.202.61.345.339.32.454.531.176.463.176.757a1.74 1.74 0 0 1-.288.988c-.19.287-.466.514-.828.68s-.796.25-1.307.25c-.49 0-.914-.078-1.272-.234s-.638-.376-.841-.661a1.92 1.92 0 0 1-.336-1.023h.991c.019.237.096.434.23.591s.31.272.521.349a2.12 2.12 0 0 0 .7.112 1.99 1.99 0 0 0 .745-.131c.219-.09.392-.214.518-.371a.88.88 0 0 0 .189-.56c0-.193-.055-.352-.166-.476s-.257-.226-.444-.307-.395-.152-.63-.214l-.773-.211c-.524-.142-.94-.352-1.246-.629s-.457-.644-.457-1.1c0-.377.102-.706.307-.987s.481-.5.831-.655a2.84 2.84 0 0 1 1.182-.237c.443 0 .834.078 1.173.233a1.98 1.98 0 0 1 .805.643c.196.27.298.581.307.933h-.952zM70.577 198h-1.048l2.355-6.545h1.141L75.38 198h-1.048l-1.85-5.357h-.051L70.577 198zm.176-2.563h3.401v.831h-3.401v-.831zm5.496 4.404v-6.75h.933v.796h.08a2.61 2.61 0 0 1 .24-.355c.104-.134.249-.251.435-.352s.43-.153.735-.153a1.92 1.92 0 0 1 1.061.3c.311.201.555.489.732.867s.269.831.269 1.361-.088.985-.265 1.365-.42.668-.729.872-.662.304-1.058.304c-.298 0-.542-.05-.732-.15s-.335-.218-.441-.352a2.6 2.6 0 0 1-.246-.358h-.058v2.605h-.956zm.936-4.296c0 .346.05.648.15.908s.245.464.435.611.422.217.697.217c.285 0 .524-.076.716-.227s.337-.361.435-.623.15-.557.15-.886c0-.323-.049-.614-.147-.872a1.34 1.34 0 0 0-.435-.611c-.192-.149-.432-.223-.719-.223-.277 0-.511.071-.703.214s-.334.342-.431.598-.147.554-.147.894zm4.618 4.296v-6.75h.933v.796h.08a2.61 2.61 0 0 1 .24-.355c.104-.134.249-.251.435-.352s.43-.153.735-.153a1.92 1.92 0 0 1 1.061.3c.311.201.555.489.732.867s.269.831.269 1.361-.088.985-.265 1.365-.42.668-.729.872-.662.304-1.058.304c-.298 0-.542-.05-.732-.15s-.334-.218-.441-.352a2.6 2.6 0 0 1-.246-.358h-.058v2.605h-.956zm.936-4.296c0 .346.05.648.15.908s.245.464.435.611.422.217.697.217c.285 0 .524-.076.716-.227s.337-.361.435-.623.15-.557.15-.886c0-.323-.049-.614-.147-.872a1.34 1.34 0 0 0-.435-.611c-.192-.149-.431-.223-.719-.223-.277 0-.511.071-.703.214s-.333.342-.431.598-.147.554-.147.894zm5.574-4.09V198h-.956v-6.545h.956zM89.599 198v-4.909h.956V198h-.956zm.483-5.667c-.166 0-.309-.055-.428-.166a.54.54 0 0 1-.176-.402c0-.158.059-.292.176-.403a.6.6 0 0 1 .428-.17.59.59 0 0 1 .425.17.53.53 0 0 1 .179.403c0 .155-.06.289-.179.402s-.259.166-.425.166zm3.827 5.766c-.475 0-.884-.108-1.227-.323a2.13 2.13 0 0 1-.786-.898c-.183-.381-.275-.818-.275-1.31 0-.499.094-.939.281-1.32a2.15 2.15 0 0 1 .793-.898c.341-.215.742-.323 1.205-.323.373 0 .705.069.997.208s.527.328.706.575.289.536.323.866h-.93c-.051-.23-.168-.428-.351-.594s-.424-.25-.729-.25a1.19 1.19 0 0 0-.7.211 1.36 1.36 0 0 0-.463.595c-.111.255-.166.558-.166.907 0 .358.054.667.163.927s.262.462.46.604.436.214.706.214c.181 0 .345-.033.492-.099a1.01 1.01 0 0 0 .374-.29c.102-.126.174-.277.214-.454h.93c-.034.317-.138.601-.31.85s-.404.445-.694.588-.625.214-1.013.214zm4.467.01c-.311 0-.592-.058-.844-.173s-.451-.286-.598-.508-.217-.493-.217-.815c0-.277.053-.505.16-.684s.25-.321.431-.425.384-.183.607-.237.452-.093.684-.121l.716-.083c.183-.024.316-.061.4-.112s.125-.134.125-.249v-.023c0-.279-.079-.495-.237-.648s-.388-.231-.697-.231c-.322 0-.575.072-.761.215s-.31.297-.38.469l-.898-.204c.106-.298.262-.539.467-.722s.444-.32.713-.403a2.79 2.79 0 0 1 .847-.128 2.98 2.98 0 0 1 .623.07c.222.045.428.128.62.25s.352.295.476.521.185.514.185.872V198h-.933v-.671h-.038c-.062.123-.154.245-.278.364a1.47 1.47 0 0 1-.476.297c-.194.079-.426.119-.697.119zm.208-.767c.264 0 .49-.053.677-.157s.334-.241.431-.409.15-.353.15-.547v-.632a.49.49 0 0 1-.198.095 2.93 2.93 0 0 1-.329.074l-.361.054-.294.039c-.185.023-.355.063-.508.118s-.273.135-.364.24-.134.238-.134.409c0 .236.087.415.262.537s.397.179.668.179zm5.779-4.251v.767h-2.682v-.767h2.682zm-1.963-1.176h.956v4.644c0 .185.028.325.083.418s.127.155.214.189.187.048.291.048a1.17 1.17 0 0 0 .201-.016l.135-.026.172.79c-.055.021-.134.042-.236.064s-.23.036-.384.038a1.7 1.7 0 0 1-.703-.134 1.21 1.21 0 0 1-.527-.435c-.135-.196-.202-.442-.202-.738v-4.842zm3.02 6.085v-4.909h.955V198h-.955zm.482-5.667c-.166 0-.309-.055-.428-.166a.54.54 0 0 1-.176-.402c0-.158.059-.292.176-.403a.6.6 0 0 1 .428-.17.59.59 0 0 1 .425.17c.12.111.179.245.179.403s-.059.289-.179.402-.258.166-.425.166zm3.827 5.766c-.46 0-.862-.105-1.205-.316s-.609-.506-.799-.886-.285-.822-.285-1.329.095-.955.285-1.336a2.13 2.13 0 0 1 .799-.889c.343-.211.745-.316 1.205-.316s.862.105 1.205.316a2.13 2.13 0 0 1 .799.889c.189.381.284.827.284 1.336s-.095.95-.284 1.329-.456.675-.799.886-.745.316-1.205.316zm.003-.802c.298 0 .545-.079.741-.237s.341-.367.435-.629.144-.551.144-.866a2.49 2.49 0 0 0-.144-.863 1.4 1.4 0 0 0-.435-.636c-.196-.16-.443-.24-.741-.24s-.55.08-.748.24a1.42 1.42 0 0 0-.438.636 2.56 2.56 0 0 0-.14.863c0 .315.047.604.14.866s.242.472.438.629.448.237.748.237zm4.307-2.212V198h-.955v-4.909h.917v.799h.061a1.41 1.41 0 0 1 .53-.627c.243-.157.549-.236.918-.236.334 0 .627.07.878.211a1.4 1.4 0 0 1 .585.62c.139.275.208.615.208 1.019V198h-.956v-3.007c0-.356-.092-.634-.278-.835s-.44-.303-.763-.303a1.2 1.2 0 0 0-.592.144c-.17.095-.305.236-.406.421s-.147.405-.147.665zm8.102-.796l-.866.154c-.036-.111-.094-.216-.172-.317s-.181-.182-.314-.246-.297-.096-.495-.096c-.271 0-.496.061-.678.183s-.271.273-.271.463a.49.49 0 0 0 .182.396c.121.1.317.183.588.246l.78.179c.452.105.788.266 1.01.483s.332.5.332.847a1.29 1.29 0 0 1-.255.786c-.169.228-.404.407-.707.537s-.649.195-1.045.195c-.55 0-.998-.117-1.345-.351s-.561-.573-.64-1.007l.924-.141c.058.241.176.423.355.547s.412.182.7.182c.313 0 .563-.065.751-.195s.281-.293.281-.483c0-.153-.057-.282-.173-.386s-.286-.184-.521-.237l-.83-.182c-.459-.105-.797-.271-1.017-.499s-.326-.516-.326-.866c0-.29.081-.543.243-.76s.386-.387.671-.509.613-.185.981-.185c.531 0 .949.115 1.253.345s.506.534.604.917z" class="C"/><rect x="51.036" y="143.944" width="27.32" height="27.32" rx="13.66" class="D"/><g clip-path="url(#G)" class="C"><path d="M58.349 156.414a1.19 1.19 0 1 0 0 2.38 1.19 1.19 0 1 0 0-2.38zm0-4.762a1.19 1.19 0 1 0 0 2.381 1.19 1.19 0 1 0 0-2.381zm0 9.523c-.659 0-1.19.54-1.19 1.19a1.2 1.2 0 0 0 1.19 1.191 1.2 1.2 0 0 0 1.19-1.191c0-.65-.532-1.19-1.19-1.19zm2.381 1.984h11.11v-1.587h-11.11v1.587zm0-4.761h11.11v-1.588h-11.11v1.588zm0-6.349v1.587h11.11v-1.587h-11.11z"/></g><rect x="51.036" y="143.944" width="27.32" height="27.32" rx="13.66" stroke-width=".68" class="G"/><rect x="70.874" y="143.944" width="27.32" height="27.32" rx="13.66" class="D"/><path d="M91.183 158.967l1.485 1.497v4.132c0 .402-.148.752-.443 1.05a1.42 1.42 0 0 1-1.042.447H78.197a1.42 1.42 0 0 1-1.042-.447c-.295-.298-.443-.648-.443-1.05v-13.09c0-.402.148-.752.443-1.05a1.42 1.42 0 0 1 1.042-.447h4.609v1.497h-4.609v13.09h12.987v-5.629zm2.172.067l-2.881-2.904c-.31.208-.628.361-.953.458s-.687.145-1.085.145c-1.064 0-1.958-.369-2.682-1.106s-1.086-1.634-1.086-2.692c0-1.072.366-1.977 1.097-2.714s1.621-1.106 2.671-1.106c1.064 0 1.961.369 2.692 1.106s1.097 1.642 1.097 2.714a3.81 3.81 0 0 1-.178 1.162 4.64 4.64 0 0 1-.465 1.028l2.815 2.859-1.041 1.05zm-4.92-3.775c.665 0 1.215-.224 1.651-.67s.654-.998.654-1.654c0-.67-.218-1.225-.654-1.664s-.986-.659-1.651-.659a2.24 2.24 0 0 0-1.64.659c-.443.439-.665.994-.665 1.664 0 .656.222 1.207.665 1.654s.99.67 1.64.67zm-9.108 7.305l2.615-3.441 2.039 2.77 2.814-3.731 3.28 4.402H79.327z" class="C"/><rect x="70.874" y="143.944" width="27.32" height="27.32" rx="13.66" stroke-width=".68" class="G"/><rect x="15.5" y="12.5" width="118.856" height="78.067" rx="2.742" class="D E"/><path d="M41.761 68.335c-.034-.302-.175-.537-.422-.703s-.558-.253-.933-.253c-.269 0-.501.043-.697.128s-.348.198-.457.345-.16.31-.16.495a.73.73 0 0 0 .109.403c.075.113.172.208.291.284a2.2 2.2 0 0 0 .39.189l.4.121.639.166a4.88 4.88 0 0 1 .642.208c.219.087.423.202.61.345s.339.32.454.531.176.463.176.757a1.74 1.74 0 0 1-.288.988c-.19.288-.466.514-.828.681s-.796.249-1.307.249c-.49 0-.914-.078-1.272-.233s-.638-.376-.84-.662-.314-.629-.336-1.023h.991a1.01 1.01 0 0 0 .23.591c.136.156.31.272.521.348s.446.112.7.112c.279 0 .527-.044.745-.131s.392-.213.518-.371a.88.88 0 0 0 .188-.559c0-.194-.055-.353-.166-.476s-.257-.226-.444-.307a4.34 4.34 0 0 0-.63-.214l-.773-.211c-.524-.143-.94-.353-1.246-.63s-.457-.644-.457-1.099c0-.377.102-.706.307-.988s.481-.5.831-.655.744-.236 1.182-.236.834.078 1.173.233.609.37.805.642a1.62 1.62 0 0 1 .307.933h-.952zm4.437-.083v.767h-2.681v-.767h2.682zm-1.962-1.176h.956v4.644c0 .185.028.325.083.419s.127.154.214.189a.86.86 0 0 0 .291.048c.077 0 .144-.005.201-.016l.134-.026.173.789c-.055.021-.134.043-.236.064a1.88 1.88 0 0 1-.383.038c-.252.004-.486-.04-.703-.134s-.393-.239-.527-.435-.201-.442-.201-.738v-4.842zm6.129 4.049v-2.873h.959v4.909h-.94v-.85h-.051c-.113.262-.294.48-.543.655s-.555.259-.924.259a1.66 1.66 0 0 1-.837-.208 1.46 1.46 0 0 1-.569-.623c-.136-.275-.204-.615-.204-1.019v-3.123h.956v3.008c0 .334.093.601.278.799s.426.297.722.297c.179 0 .357-.045.534-.134s.327-.225.444-.406.178-.411.176-.69zm4.081 2.132c-.396 0-.75-.101-1.061-.304s-.552-.495-.729-.873-.262-.834-.262-1.365.088-.984.265-1.362.424-.666.735-.866.664-.3 1.058-.3c.305 0 .55.051.735.153s.332.217.435.352a2.97 2.97 0 0 1 .243.355h.057v-2.432h.956v6.545h-.933v-.764h-.08a2.54 2.54 0 0 1-.249.358c-.107.134-.254.251-.441.352s-.43.15-.729.15zm.211-.815c.275 0 .507-.072.697-.217s.337-.35.435-.61.15-.562.15-.908-.049-.639-.147-.895-.242-.455-.431-.598-.424-.214-.703-.214c-.288 0-.527.075-.719.224s-.337.353-.435.611a2.49 2.49 0 0 0-.144.872c0 .328.049.623.147.885s.243.47.435.623.432.227.716.227zm4.189 2.56c-.143 0-.273-.012-.39-.035a1.23 1.23 0 0 1-.262-.07l.23-.783c.175.047.33.067.467.061a.56.56 0 0 0 .361-.153c.106-.096.2-.252.281-.47l.118-.326-1.796-4.973h1.023l1.243 3.81h.051l1.243-3.81h1.026l-2.023 5.564c-.094.256-.213.472-.358.649a1.39 1.39 0 0 1-.518.403c-.2.09-.432.134-.697.134zm7.505-1.841h-1.048l2.356-6.545h1.141l2.355 6.545h-1.048l-1.85-5.357h-.051l-1.854 5.357zm.176-2.563h3.401v.831h-3.401v-.831zm7.485 2.662c-.475 0-.884-.108-1.227-.323s-.603-.517-.786-.898-.275-.818-.275-1.31c0-.499.094-.939.281-1.32s.452-.683.793-.898.742-.323 1.205-.323c.373 0 .705.069.997.208a1.79 1.79 0 0 1 .706.575c.181.247.289.536.323.866h-.93c-.051-.23-.168-.428-.352-.594s-.424-.249-.729-.249c-.266 0-.5.07-.7.211s-.353.337-.464.594-.166.558-.166.908c0 .358.054.667.163.927s.262.461.46.604.436.214.706.214c.181 0 .345-.033.492-.099s.274-.165.374-.291.174-.277.214-.454h.93c-.034.317-.138.601-.31.85s-.404.445-.694.588-.625.214-1.013.214zm6.353 1.742v-2.605h-.057a2.54 2.54 0 0 1-.249.358c-.107.134-.254.251-.441.352s-.43.15-.729.15c-.396 0-.75-.101-1.061-.304a2.07 2.07 0 0 1-.729-.873c-.175-.379-.262-.834-.262-1.365s.088-.984.265-1.362.424-.666.735-.866.664-.3 1.058-.3c.305 0 .55.051.735.153s.332.217.435.352a2.97 2.97 0 0 1 .243.355h.08v-.796h.933v6.75h-.956zm-1.266-2.56c.275 0 .507-.072.697-.217s.337-.35.435-.61.15-.562.15-.908-.049-.639-.147-.895-.242-.455-.431-.598-.424-.214-.703-.214c-.288 0-.527.075-.719.224s-.337.353-.435.611a2.49 2.49 0 0 0-.144.872c0 .328.049.623.147.885s.243.47.435.623.433.227.716.227zm6.616-1.317v-2.873h.959v4.909h-.94v-.85h-.051c-.113.262-.294.48-.543.655s-.555.259-.924.259a1.66 1.66 0 0 1-.837-.208 1.46 1.46 0 0 1-.569-.623c-.136-.275-.204-.615-.204-1.019v-3.123h.956v3.008c0 .334.093.601.278.799s.426.297.722.297c.179 0 .357-.045.534-.134s.327-.225.444-.406.178-.411.176-.69zm2.243 2.036v-4.909h.956v4.909h-.956zm.483-5.666c-.166 0-.309-.055-.428-.166a.54.54 0 0 1-.176-.403c0-.158.059-.292.176-.403a.6.6 0 0 1 .428-.169.59.59 0 0 1 .425.169.53.53 0 0 1 .179.403c0 .155-.06.29-.179.403s-.259.166-.425.166zm5.437 1.956l-.866.153c-.036-.111-.094-.216-.172-.316s-.181-.182-.313-.246-.297-.096-.495-.096c-.271 0-.497.061-.678.182s-.272.274-.272.463a.49.49 0 0 0 .182.396c.121.1.317.182.588.246l.78.179c.452.104.788.265 1.01.483s.332.5.332.847c0 .294-.085.556-.256.786s-.404.407-.706.537-.649.195-1.045.195c-.55 0-.998-.117-1.346-.352s-.56-.572-.639-1.007l.924-.141c.057.241.176.423.355.546s.412.182.7.182c.313 0 .564-.065.751-.195s.281-.293.281-.483a.5.5 0 0 0-.173-.387c-.113-.104-.287-.183-.521-.237l-.831-.182c-.458-.104-.797-.271-1.016-.499s-.326-.517-.326-.866c0-.29.081-.543.243-.761a1.59 1.59 0 0 1 .671-.508c.285-.124.613-.185.981-.185.531 0 .948.115 1.253.345s.506.534.604.917zm1.147 3.711v-4.909h.956v4.909h-.956zm.483-5.666c-.166 0-.309-.055-.428-.166a.54.54 0 0 1-.176-.403c0-.158.059-.292.176-.403a.6.6 0 0 1 .428-.169.59.59 0 0 1 .425.169.53.53 0 0 1 .179.403c0 .155-.06.29-.179.403s-.259.166-.425.166zm4.05.757v.767h-2.681v-.767h2.682zm-1.962-1.176h.956v4.644c0 .185.028.325.083.419s.127.154.214.189a.86.86 0 0 0 .291.048c.077 0 .144-.005.201-.016l.134-.026.173.789a1.61 1.61 0 0 1-.236.064 1.88 1.88 0 0 1-.383.038c-.252.004-.486-.04-.703-.134s-.393-.239-.527-.435-.201-.442-.201-.738v-4.842zm3.019 6.085v-4.909h.956v4.909h-.956zm.483-5.666c-.166 0-.309-.055-.428-.166a.54.54 0 0 1-.176-.403c0-.158.059-.292.176-.403a.6.6 0 0 1 .428-.169.59.59 0 0 1 .425.169.53.53 0 0 1 .179.403c0 .155-.06.29-.179.403s-.259.166-.425.166zm3.826 5.766c-.46 0-.861-.105-1.204-.316s-.61-.506-.799-.885-.285-.822-.285-1.329.095-.955.285-1.336a2.12 2.12 0 0 1 .799-.889c.343-.211.744-.316 1.204-.316s.862.105 1.205.316.61.507.799.889.285.827.285 1.336-.095.95-.285 1.329a2.13 2.13 0 0 1-.799.885c-.343.211-.744.316-1.205.316zm.004-.802c.298 0 .545-.079.741-.236s.341-.368.435-.63a2.5 2.5 0 0 0 .144-.866c0-.313-.048-.601-.144-.863s-.239-.476-.435-.636-.443-.24-.741-.24-.55.08-.748.24a1.43 1.43 0 0 0-.438.636 2.54 2.54 0 0 0-.141.863 2.55 2.55 0 0 0 .141.866 1.41 1.41 0 0 0 .438.63c.198.158.447.236.748.236zm4.307-2.212v2.915h-.956v-4.909h.918v.799h.06c.113-.26.29-.469.531-.626s.549-.236.917-.236c.335 0 .628.07.879.211s.447.345.585.62.208.615.208 1.02v3.123h-.956v-3.007c0-.356-.093-.634-.278-.834s-.44-.304-.764-.304c-.221 0-.418.048-.591.144s-.306.236-.406.422-.147.405-.147.665z" class="C"/><rect x="53.065" y="27.402" width="27.298" height="27.298" rx="13.649" class="D"/><path d="M77.546 41.05c0 4.602-3.88 8.332-8.666 8.332-3.206 0-5.998-1.678-7.497-4.166h1.283c1.372 1.886 3.644 3.124 6.214 3.124 4.181 0 7.582-3.27 7.582-7.291s-3.401-7.29-7.582-7.29c-3.017 0-5.62 1.707-6.84 4.166h-1.19c1.286-3.052 4.394-5.208 8.03-5.208 4.786 0 8.665 3.73 8.665 8.332h.001zm-4.333 2.083H55.882v1.041h17.331v-1.041zm-2.166-5.208c-1.196 0-2.166.933-2.166 2.083s.97 2.083 2.166 2.083 2.166-.933 2.166-2.083-.97-2.083-2.166-2.083zm-3.25 1.041h-8.665c-1.795 0-3.25 1.399-3.25 3.124h11.915v-3.124z" class="C"/><rect x="53.065" y="27.402" width="27.298" height="27.298" rx="13.649" class="G O"/><rect x="72.635" y="27.402" width="27.298" height="27.298" rx="13.649" class="D"/><path d="M88.243 38.557a1.14 1.14 0 0 1-1.139-1.139c0-.637.521-1.158 1.139-1.139a1.14 1.14 0 0 1 1.139 1.139 1.14 1.14 0 0 1-1.139 1.139zm-6.179 2.915l.251-.463 1.622-2.916c.058-.097.116-.135.154-.135.058 0 .116.058.174.135.019.019.019.039.039.058l.174.251.232.367c.058.116.135.212.193.309l.328.521c.154.251.367.502.695.328.251-.135.406-.483.715-.483.212 0 .425.135.56.347l.444.637h1.834a1.08 1.08 0 0 1 1.081 1.081v.251h-2.027-.019-.019a.81.81 0 0 1-.309-.019h-.56l-.985.019h-4.383-.039c-.077 0-.154-.039-.174-.058-.019-.039-.019-.077-.019-.116.019-.039.019-.077.039-.116zM80.075 34h12.377c.83 0 1.178.348 1.178 1.178v9.21c0 .83-.348 1.158-1.159 1.158h-4.654c0 .077.019.174.019.27l.058.772c.019.077.019.154.058.212.077.232.212.406.444.541.077.058.154.097.232.154l.425.251a.58.58 0 0 1 .154.154c.039.097 0 .174-.116.193h-.116-5.426c-.097 0-.232.039-.251-.097s.058-.193.154-.251c.155-.077.29-.174.444-.27.058-.039.116-.058.174-.097a.97.97 0 0 0 .463-.541c.039-.116.077-.232.077-.348l.077-.927h-4.634c-.772 0-1.12-.347-1.12-1.12V35.12c.039-.753.406-1.12 1.139-1.12h0zm.097 8.805h6.14 6.121v-7.588h-.116H80.21h-.058v2.51l.019 5.078h0z" class="C"/><g class="G"><rect x="72.635" y="27.402" width="27.298" height="27.298" rx="13.649" class="O"/><g stroke-width="1.209"><path d="M378.594 92.256s-4.238-.542-5.14.302c-.959.731-.96 3.081-.876 5.442" stroke-linecap="round"/><path d="M362.571 94.977c-1.109-1.612-3.205-5.684-2.721-9.07s1.41-5.039 1.814-5.442c.705-.705 2.479-1.814 3.93-.605 1.814 1.512 1.511 3.023 6.349 1.209s9.674-.302 10.883 3.628.305 9.07-.602 10.884m-19.653-.605c7.064-.456 11.641-5.957 13.327-9.12.16-.3.53-.43.824-.258 6.218 3.625 6.079 12.928 5.197 17.239-.503 2.519-3.083 7.558-9.372 7.558s-9.271-5.442-9.976-8.163 0-7.255 0-7.255z"/><path d="M378.594 108.279v3.023a6.05 6.05 0 0 1-6.047 6.047h0a6.05 6.05 0 0 1-6.046-6.047v-3.023"/></g></g><g stroke-width=".605"><path stroke="#fafafc" d="M359.547 92.416h26v5.442h-26z" class="C"/><rect x="345.641" y="72.302" width="52" height="52" rx="26" class="G"/></g><defs><linearGradient id="D" x1="445" y1="114" x2="567.271" y2="86.402" gradientUnits="userSpaceOnUse"><stop stop-color="#3c0688"/><stop offset="1" stop-color="#a282fe"/></linearGradient><linearGradient id="E" x1="511.286" y1="214.7" x2="484.909" y2="209.462" gradientUnits="userSpaceOnUse"><stop stop-color="#340674"/><stop offset="1" stop-color="#7545ff"/></linearGradient><clipPath id="F"><path transform="translate(613.339 47)" d="M0 0h37v36H0z" class="B"/></clipPath><clipPath id="G"><path transform="translate(55.174 148.081)" d="M0 0h19.045v19.045H0z" class="B"/></clipPath><path id="H" d="M627.647 118.532c.025-.723 3.189-.827 3.733-.426s.277.805 0 .948-3.543.189-3.655 0-.087-.258-.078-.522h0z"/><path id="I" d="M627.647 120.079c.025-.724 3.189-.827 3.733-.427s.277.806 0 .948-3.543.19-3.655 0-.087-.258-.078-.521h0z"/></defs></svg>